<svg width="158" height="192" viewBox="0 0 158 192" fill="none" xmlns="http://www.w3.org/2000/svg">
<path d="M115.377 52.6281C122.969 58.2004 128.626 65.1001 131.186 74.2192C131.663 75.9172 131.904 79.582 132.434 80.7245C132.822 81.5622 134.164 82.5652 134.779 83.564C140.249 92.4428 138.233 102.298 127.291 104.829C119.229 125.566 110.566 146.33 100.785 166.337C97.5727 172.91 95.8524 179.154 87.6288 180.077C71.8117 181.857 50.3759 174.896 36.7246 167.114C31.8112 164.314 25.7354 160.583 24.5462 154.698C25.2376 136.395 27.3531 117.91 29.5785 99.6598C30.5732 91.5006 31.6858 83.3342 33.1562 75.2414C27.2132 67.6766 30.4588 55.8019 39.8229 52.9424C40.5999 52.7045 42.4866 52.7483 42.8676 52.5117C43.3564 52.2016 44.827 49.8931 45.6378 49.1282C54.6056 40.6918 68.4431 38.8518 80.3271 39.7965C85.4465 40.2038 89.7919 41.6953 94.7741 42.5054C98.8732 36.1144 104.796 30.1451 108.838 23.8681C109.702 22.5266 109.715 20.0791 111.868 20.0796C115.149 20.0779 119.173 22.8138 121.719 24.7159C124.298 26.6462 128.469 29.8696 128.973 33.1201C129.517 36.6141 128.094 35.9587 126.539 37.7718C122.553 42.4146 118.941 47.6461 115.381 52.6291L115.377 52.6281ZM123.522 32.3329C120.728 30.9585 118.146 27.7352 115.661 26.2268C115.296 26.0039 115.035 25.717 114.549 25.8672L96.8422 48.6504C82.2451 43.8602 61.3627 42.065 49.4784 53.5687C48.6324 54.3885 46.2203 57.6712 45.6541 57.9284C44.9799 58.2379 42.9119 57.7373 41.3602 58.3466C36.1651 60.3947 34.0734 66.4774 37.4064 71.1346C38.3878 72.5065 40.5416 73.5763 40.6259 75.081L31.6025 152.025C31.8506 157.215 39.6531 160.889 43.7897 162.886C53.6863 167.663 66.4984 171.51 77.4143 172.861C81.706 173.392 86.55 173.861 90.1675 171.062C99.2226 152.053 107.204 132.585 115.53 113.254C117.324 109.09 119.475 103.463 121.59 99.6161C122.202 98.5008 127.479 98.009 129.364 96.5957C132.731 94.0723 131.393 88.1281 129.078 85.2284C128.492 84.4944 126.955 83.39 126.691 82.875C126.165 81.8492 125.866 76.5659 125.366 74.7031C122.906 65.5883 115.036 58.2986 107.326 53.3202L123.53 32.3286L123.522 32.3329Z" fill="white"/>
<path d="M123.522 32.333L107.318 53.3246C115.029 58.3029 122.898 65.5927 125.358 74.7074C125.862 76.5713 126.159 81.8578 126.683 82.8794C126.948 83.3943 128.485 84.4988 129.07 85.2328C131.386 88.1294 132.723 94.0767 129.356 96.6001C127.468 98.0123 122.194 98.5051 121.582 99.6205C119.467 103.467 117.316 109.094 115.523 113.258C107.196 132.59 99.2147 152.057 90.1595 171.066C86.5421 173.865 81.6981 173.396 77.4064 172.865C66.4894 171.517 53.6805 167.671 43.7818 162.89C39.6484 160.895 31.8459 157.221 31.5946 152.029L40.618 75.0854C40.5337 73.5807 38.3799 72.5109 37.3985 71.139C34.0655 66.4818 36.1571 60.3991 41.3523 58.351C42.905 57.7385 44.9699 58.2381 45.6462 57.9328C46.2092 57.6746 48.6213 54.3919 49.4705 53.573C61.3548 42.0694 82.2382 43.8614 96.8343 48.6548L114.541 25.8716C115.025 25.7172 115.288 26.0082 115.653 26.2311C118.139 27.7364 120.724 30.9608 123.514 32.3373L123.522 32.333ZM91.0945 56.2447L93.7743 52.6643C94.4054 51.6213 92.8858 51.958 92.3903 51.8014C87.7185 50.3232 83.6538 49.6314 78.7612 49.4755C67.6845 49.12 55.229 50.984 49.1982 61.4138C49.08 63.4154 64.7464 70.1614 67.2006 71.157C68.4019 71.643 76.062 74.6632 76.541 74.5351L87.8679 59.0476L97.8613 60.9462C97.9374 60.2233 97.3519 60.0201 96.8145 59.7766C92.7648 57.944 87.5414 58.1947 83.2251 57.4146L82.8909 56.3146L83.5147 55.7059L91.0967 56.2489L91.0945 56.2447ZM121.224 84.0561C122.988 72.0626 113.792 62.4335 104.142 56.8178L87.8774 77.8351C91.4609 79.7021 119.414 85.3783 121.225 84.0529L121.224 84.0561ZM123.871 87.0665C123.363 87.0456 122.2 87.8503 121.22 88.0016C116.179 88.7794 97.5895 84.2987 91.8233 82.8056C79.234 79.5478 60.3521 73.5336 49.5674 66.4894C47.0722 64.8623 45.1755 61.4586 42.3566 63.3245C39.3369 65.3246 40.2334 67.8043 42.8096 69.6252C52.8852 76.7511 74.2136 84.2615 86.1556 87.5616C93.0232 89.4595 118.504 95.3008 124.352 93.4952C128.692 92.1557 125.997 87.1493 123.875 87.0643L123.871 87.0665ZM114.516 104.924C111.931 103.875 109.03 104.22 106.327 103.811C90.6591 101.434 72.4661 97.2525 57.8644 91.1334C53.0578 89.1191 48.4588 86.5816 43.8671 84.1513L37.1215 143.473C43.6129 148.55 52.0875 152.246 59.9828 154.657C66.8017 156.739 80.1794 159.745 87.2002 159.24C89.5619 159.071 91.2131 158.728 92.3651 156.582C95.7365 150.298 98.2567 142.715 101.143 136.124C105.68 125.767 110.501 115.516 114.515 104.927L114.516 104.924Z" fill="#5C2235"/>
<path d="M114.515 104.923C110.502 115.512 105.676 125.766 101.143 136.121C98.2573 142.712 95.7361 150.297 92.3658 156.578C91.2137 158.724 89.5636 159.064 87.2009 159.237C80.179 159.744 66.8013 156.738 59.9835 154.654C52.0881 152.242 43.6136 148.547 37.1222 143.47L43.8678 84.1479C48.4595 86.5782 53.0585 89.1157 57.8651 91.13C72.4668 97.249 90.6598 101.43 106.327 103.807C109.031 104.216 111.932 103.872 114.516 104.92L114.515 104.923ZM60.3519 102.36C48.1501 107.631 44.0166 122.806 50.3565 134.082C64.7644 159.727 103.018 147.967 96.9217 119.643C93.5054 103.772 74.799 96.12 60.3519 102.36Z" fill="white"/>
<path d="M91.0943 56.2447L83.5123 55.7018L82.8885 56.3105L83.2227 57.4105C87.539 58.1905 92.7656 57.9409 96.8121 59.7725C97.3495 60.016 97.9382 60.2202 97.859 60.942L87.8655 59.0435L76.5386 74.531C76.0596 74.6591 68.3995 71.6389 67.1983 71.1529C64.7472 70.1583 49.0808 63.4123 49.1958 61.4096C55.2266 50.9799 67.6821 49.1159 78.7589 49.4714C83.6546 49.6283 87.7162 50.319 92.388 51.7973C92.8824 51.957 94.403 51.6171 93.7719 52.6602L91.0921 56.2406L91.0943 56.2447ZM60.0578 61.7795C60.2565 61.739 62.5729 60.074 63.4971 59.7055C64.8745 59.1586 70.9212 58.3427 71.0163 57.4094C71.2548 55.1114 64.0272 57.079 62.9791 57.4843C62.0149 57.8573 57.62 60.1046 58.2446 61.2809C58.805 61.3992 59.5186 61.8882 60.0546 61.7785L60.0578 61.7795Z" fill="white"/>
<path d="M123.87 87.0665C125.992 87.1515 128.691 92.1589 124.348 93.4974C118.499 95.303 93.022 89.4627 86.1512 87.5638C74.206 84.2627 52.8808 76.7533 42.8051 69.6274C40.229 67.8065 39.3293 65.3258 42.3522 63.3267C45.171 61.4608 47.0709 64.8655 49.563 66.4916C60.3487 73.5326 79.2296 79.55 91.8188 82.8078C97.5882 84.3019 116.175 88.7816 121.215 88.0038C122.195 87.8525 123.358 87.0478 123.866 87.0687L123.87 87.0665Z" fill="white"/>
<path d="M121.224 84.0561C119.413 85.3814 91.464 79.7031 87.8764 77.8383L104.141 56.821C113.791 62.4366 122.987 72.0658 121.223 84.0593L121.224 84.0561ZM107.551 67.3815C104.384 67.214 109.574 71.6293 109.884 72.0441C110.661 73.0845 112.099 77.0524 112.934 77.3291C114.913 77.532 114.038 75.3212 113.54 74.2174C112.883 72.7649 109.055 67.4622 107.554 67.3825L107.551 67.3815ZM98.2255 72.5587C99.4253 72.1606 101.637 76.0956 102.513 74.5554C103.023 73.6585 98.7667 70.2013 98.2255 72.5587Z" fill="white"/>
<path d="M60.3516 102.36C74.7955 96.1191 93.5019 103.771 96.9214 119.643C103.021 147.968 64.7641 159.727 50.3562 134.082C44.0205 122.804 48.154 107.629 60.3516 102.36ZM73.8816 102.977C58.5763 101.007 44.9252 116.082 51.935 131.103C61.2204 150.999 89.5998 150.599 94.6169 128.27C97.3701 116.023 85.5036 104.473 73.8816 102.977Z" fill="#5C2235"/>
<path d="M60.0575 61.7794C59.5183 61.8881 58.8079 61.4 58.2474 61.2818C57.6229 60.1055 62.0178 57.8582 62.982 57.4852C64.0301 57.0799 71.2555 55.1081 71.0191 57.4103C70.9219 58.3394 64.8752 59.1553 63.4999 59.7063C62.5757 60.0748 60.2551 61.742 60.0607 61.7804L60.0575 61.7794Z" fill="#5C2235"/>
<path d="M107.551 67.3814C109.051 67.4612 112.882 72.7648 113.537 74.2163C114.034 75.3201 114.909 77.5309 112.931 77.3281C112.096 77.0513 110.661 73.0845 109.881 72.043C109.57 71.6283 104.381 67.2129 107.547 67.3804L107.551 67.3814Z" fill="#5C2235"/>
<path d="M98.2253 72.5587C98.7666 70.2013 103.026 73.6594 102.513 74.5553C101.634 76.0945 99.422 72.1595 98.2253 72.5587Z" fill="#5C2235"/>
<path d="M73.882 102.977C85.5008 104.472 97.3673 116.022 94.6173 128.27C89.6002 150.599 61.2208 150.999 51.9354 131.103C44.9256 116.083 58.5766 101.007 73.882 102.977Z" fill="white"/>
<path d="M83.8945 113.093C84.9041 111.02 84.5244 109.79 82.2826 109.09C80.576 109.258 80.6112 113.461 79.7755 114.162C79.6564 114.26 77.3343 114.383 76.7039 114.535C75.8423 114.742 74.6665 115.868 74.1944 115.097L76.1579 112.249L74.9359 111.047L72.622 112.325C73.6582 110.386 72.8575 108.011 70.4813 108.951L70.2574 111.973L68.97 111.082C71.4298 103.254 58.6192 106.596 61.7378 111.515C62.1144 112.105 63.4351 112.546 62.9044 113.083C62.2214 113.778 59.4644 112.733 58.072 113.359C57.294 113.708 57.0399 114.43 56.4726 114.788C54.8816 115.789 54.1836 114.645 53.5875 117.844C52.4972 123.688 54.1125 124.93 56.1657 129.571C57.022 131.504 56.9493 133.202 58.5067 135.207C62.4623 140.31 73.798 144.923 79.7866 141.741C81.2408 140.968 81.4563 139.543 82.3683 138.898C83.0042 138.447 84.5085 138.59 85.4444 138.229C89.8783 136.522 92.3313 132.484 92.9902 127.856C93.4559 124.573 92.2873 125.46 91.3853 123.712C89.8982 120.828 92.1263 121.852 88.2541 118.788C87.908 118.515 87.9103 117.783 87.2107 117.434C86.1153 116.892 84.9245 117.467 83.8168 117.169L87.734 114.753C88.357 113.854 87.0521 111.934 86.0121 111.989L83.9018 113.092L83.8945 113.093Z" fill="white"/>
<path d="M90.1294 130.718C88.6092 134.079 87.137 135.483 83.5136 136.296C77.0603 137.742 64.2702 133.664 59.2376 129.555C57.4507 128.097 55.0459 124.543 55.4406 122.173C55.6553 120.881 56.6825 122.512 57.186 122.839C63.5762 126.95 74.3074 130.076 81.9064 130.74C83.1418 130.849 89.8913 130.382 90.1294 130.718Z" fill="white"/>
<path d="M81.7375 121.328C82.3223 122.854 84.7823 121.449 84.8355 121.609C84.2861 123.884 81.1881 122.54 79.887 121.648L80.7393 120.289C79.0291 119.666 74.9372 120.597 74.5933 118.303C74.1681 115.448 79.641 115.292 81.2868 116.428C82.6802 117.392 81.357 120.338 81.7375 121.328Z" fill="white"/>
<path d="M59.8021 119.175C59.6378 118.86 59.6697 118.133 59.7589 117.781C61.1973 112.214 70.1349 119.07 65.5973 121.369C64.76 121.793 63.4952 121.472 62.6305 122.219C62.4707 120.753 60.1811 119.909 59.8011 119.178L59.8021 119.175Z" fill="white"/>
<path d="M72.4539 124.122C66.4973 123.078 70.5642 116.732 74.1432 121.029L72.4539 124.122Z" fill="white"/>
<path d="M76.0604 126.318C75.6406 126.469 74.5182 127.884 74.0386 126.346C73.4132 124.338 78.455 122.233 79.7547 124.05C80.8803 125.626 77.2988 125.876 76.0614 126.315L76.0604 126.318Z" fill="white"/>
<path d="M71.3058 117.657L68.6743 118.78C68.2437 117.621 67.3058 116.818 66.6464 115.847C66.4188 115.511 65.9597 115.632 66.4523 114.855C69.5852 113.967 69.5032 115.998 71.3058 117.657Z" fill="white"/>
<path d="M85.5218 128.401C84.7163 127.037 85.0358 125.897 82.9094 126.324C82.1315 124.117 90.3018 121.961 85.5218 128.401Z" fill="white"/>
<path d="M76.196 128C75.674 126.864 81.0925 124.612 80.8208 126.428L79.3776 128.413L76.195 128.003L76.196 128Z" fill="white"/>
<path d="M70.7797 126.921L67.2455 125.779C66.8539 123.34 72.0991 124.874 70.7797 126.921Z" fill="white"/>
<path d="M75.1042 132.181C74.0295 133.849 72.8866 135.111 71.6755 135.967C70.4643 136.822 69.4139 137.105 68.5264 136.818C67.2617 136.409 66.4263 134.997 66.017 132.58C65.5788 129.798 65.9187 126.677 67.0377 123.214C68.1568 119.751 69.7126 117.006 71.7042 114.981C73.4471 113.26 74.9541 112.604 76.2188 113.013C76.9446 113.248 77.547 113.886 78.0281 114.932C78.506 115.977 78.7831 117.265 78.8509 118.799L82.0678 118.637C81.949 116.524 81.5144 114.738 80.767 113.281C80.0418 111.831 79.0691 110.822 77.847 110.249C77.5961 110.538 77.2517 110.748 76.871 110.81C76.1382 110.933 75.3472 110.499 75.054 109.814C74.7885 110.56 74.0875 111.137 73.304 111.254C72.7635 111.334 72.1966 111.193 71.7418 110.889C70.9618 111.363 70.1969 111.975 69.4419 112.73C67.0796 115.079 65.255 118.234 63.9755 122.193C62.696 126.153 62.3263 129.778 62.8706 133.066C63.1475 134.874 63.692 136.363 64.505 137.53C65.3148 138.696 66.3273 139.474 67.5381 139.865C69.3131 140.439 71.179 140.092 73.1349 138.827C74.823 137.742 76.3762 136.11 77.7954 133.928L75.1083 132.169L75.1042 132.181Z" fill="#5C2235"/>
<path d="M66.695 112.097C66.5908 111.889 66.5082 111.635 66.6127 111.442C66.7316 111.226 67.0262 111.191 67.2801 111.207C67.7333 111.235 68.1883 111.343 68.6063 111.545C68.6645 111.571 68.726 111.608 68.7487 111.668C68.7714 111.727 68.7436 111.792 68.7115 111.848C68.4578 112.286 68.0394 112.584 67.6208 112.851C67.3748 113.005 67.312 113.048 67.1114 112.78C66.9492 112.567 66.81 112.337 66.6908 112.1L66.695 112.097Z" fill="#5C2235"/>
<path d="M69.1006 109.745C69.0812 109.805 69.0988 109.881 69.1394 109.939C69.18 109.998 69.2362 110.041 69.2997 110.072C69.3685 110.108 69.4446 110.132 69.5172 110.124C69.5898 110.116 69.6557 110.075 69.6814 110.006C69.6987 109.953 69.694 109.892 69.7145 109.839C69.7309 109.788 69.7768 109.754 69.79 109.703C69.8154 109.603 69.7824 109.564 69.6885 109.551C69.5451 109.529 69.1498 109.604 69.1006 109.745Z" fill="#5C2235"/>
<path d="M69.2459 111.332C69.2082 111.362 69.1514 111.365 69.1049 111.346C69.0584 111.328 69.0191 111.298 68.9851 111.262C68.9457 111.222 68.9167 111.17 68.9089 111.119C68.901 111.067 68.9162 111.009 68.959 110.974C68.9915 110.95 69.0366 110.94 69.069 110.916C69.1014 110.891 69.1169 110.854 69.1482 110.833C69.2132 110.795 69.2439 110.808 69.2719 110.873C69.3139 110.97 69.3337 111.267 69.2459 111.332Z" fill="#5C2235"/>
<path d="M68.6896 110.074C68.6933 110.127 68.696 110.184 68.6711 110.228C68.6473 110.269 68.597 110.295 68.5508 110.308C68.2537 110.404 67.9172 110.243 67.6384 110.066C67.542 110.007 67.4391 109.925 67.4317 109.817C67.4233 109.713 67.5089 109.633 67.5883 109.571C67.7284 109.463 67.8791 109.365 68.034 109.275C68.1325 109.219 68.4064 109.011 68.5267 109.039C68.7241 109.089 68.6794 109.899 68.6906 110.07L68.6896 110.074Z" fill="#5C2235"/>
</svg>
