<svg width="469" height="469" viewBox="0 0 469 469" fill="none" xmlns="http://www.w3.org/2000/svg">
<path d="M219.128 72.9755C212.022 58.8448 221.093 32.1412 227.069 18.1703C246.168 -22.4193 278.443 14.5652 292.864 36.5851C299.878 47.2006 297.148 48.6187 286.511 54.251C269.279 62.7794 239.381 78.7775 219.128 72.9755Z" fill="#3F1B2C"/>
<path d="M128.768 76.5254C123.91 77.0946 115.019 77.7238 117.633 71.3225C119.377 66.3343 129.452 54.5904 135.961 55.1396C145.374 56.4528 147.757 68.2367 143.728 74.4283C140.384 79.6212 134.077 77.6938 128.768 76.5254Z" fill="#3F1B2C"/>
<path d="M177.985 77.7941C173.626 74.3388 180.101 72.5512 183.434 71.8871C201.258 57.7964 211.361 99.9638 177.985 77.7941Z" fill="#3F1B2C"/>
<path d="M156.44 46.7114C149.855 43.7404 116.578 32.8054 118.178 25.6801C119.157 21.3161 132.344 15.494 136.338 13.1672C144.511 9.30746 159.5 -1.65258 168.728 1.8726C181.822 8.76819 178.008 57.4368 156.44 46.7114Z" fill="#3F1B2C"/>
<path d="M469 469L51.194 469C17.9458 429.504 0.915846 388.934 1.5337e-05 347.291C50.4347 337.829 68.6876 281.441 32.5817 249.884C92.0008 255.437 147.131 209.689 134.796 158.519C231.857 106.485 348.945 81.9234 469 72.5562L469 469Z" fill="#3F1B2C"/>
</svg>
