<svg width="125" height="105" viewBox="0 0 125 105" fill="none" xmlns="http://www.w3.org/2000/svg">
<path d="M88.449 16.1713C90.0531 16.1983 91.6977 16.295 93.304 16.2118C96.3747 16.0522 100.788 14.6248 103.489 16.3602C107.677 19.0486 109.144 31.5107 110.253 36.3009C112.638 46.6119 115.09 56.8981 118.036 67.0606C120.555 67.2697 121.794 66.9438 123.319 69.2411C126.444 73.9414 125.46 82.1775 118.334 80.6917C118.277 84.1129 115.06 88.3794 111.555 88.8604C110.131 89.056 108.612 88.6671 107.191 88.9998C106.866 90.6609 106.907 91.9962 106.351 93.7091C104.58 99.1376 100.069 101.347 94.5949 101.797C91.0106 102.091 89.9427 101.078 86.9283 100.531C84.5402 100.097 81.8097 100.437 79.4014 100.115C78.7593 99.803 78.6354 98.4857 79.131 97.9912L84.7002 97.0718C84.7002 96.8336 84.4614 96.6627 84.2474 96.602C81.8931 95.9479 77.3265 97.0539 74.7717 97.0943C73.2555 97.119 72.2574 96.0019 73.5934 95.105C74.988 94.1699 79.7123 93.8934 81.5236 93.3719L80.6044 92.8346L61.7973 95.7546C60.5244 99.7693 57.4109 102.404 53.3962 103.489C48.9467 104.692 46.5136 103.705 42.1948 103.418C40.4939 103.305 38.5338 103.609 36.896 103.418C36.2832 103.348 35.5465 103.218 35.4316 102.48C35.0847 100.259 39.6468 100.686 41.0053 100.239C40.3812 99.3849 38.241 99.6681 37.1686 99.7153C35.2716 99.8008 32.8205 100.468 31.0407 100.486C29.8174 100.498 29.0041 99.2568 29.8805 98.5195C30.847 97.708 36.3102 97.3124 37.8287 96.8044L36.896 96.0199L14.1305 98.4093C8.81589 98.6589 5.96373 92.2142 10.42 88.8784C12.5512 87.2824 15.525 87.8871 18.0978 87.5544C19.3887 87.3881 20.6391 86.97 21.9142 86.7384L22.4752 74.2336C22.4347 73.9548 21.324 74.056 21.0176 74.0852C18.4763 74.3167 14.9438 75.3081 12.567 74.3213C8.15129 72.487 8.55681 66.0941 13.0581 64.5588C16.318 63.4461 20.4115 63.5023 23.8044 62.8617L24.0612 61.931C22.9393 61.6029 19.0868 63.1494 19.2783 61.2702C19.3707 60.3665 22.5495 60.1058 23.4485 59.8518C23.8945 59.7259 24.1874 60.0496 24.0612 59.2898C18.8413 59.9057 13.7024 61.6208 8.48697 62.3761C6.23858 62.702 4.30559 63.2483 2.25771 61.8861C-1.09911 59.6539 -0.571926 54.9672 2.90655 53.1082C4.21773 52.4091 5.99752 52.2517 7.5002 52.1416C9.17861 52.018 11.6703 52.8407 12.407 51.2222L9.66974 50.2624C3.71308 45.3328 8.98036 39.095 15.5881 40.2572C14.6194 39.1917 13.4569 38.4971 13.2293 36.9326C12.1614 29.6158 19.4023 30.1575 24.3383 29.0381C25.1494 28.8537 28.1998 28.1996 28.6549 27.8579C28.8486 27.7118 29.7836 25.6843 30.4099 25.0549C32.0117 23.4499 33.7825 24.0793 34.0956 21.5977C34.3863 19.2958 34.1407 18.3832 35.1815 16.0769C37.9819 9.87957 44.8036 8.26784 51.0352 7.71711C54.7975 0.894854 63.0183 -0.476344 70.2411 0.128331C78.8697 0.849895 85.4707 8.60726 88.458 16.1691L88.449 16.1713ZM84.9638 20.4445C82.7695 14.128 80.4377 7.93517 74.0192 4.80839C66.9091 1.34219 56.5525 3.34953 53.4052 11.1519C44.3666 10.5 35.5713 15.1328 38.6172 25.455C37.4299 26.0911 34.2421 26.1473 33.4603 27.0577C32.7101 27.9299 33.1179 31.5512 32.1514 32.3559C31.64 32.783 26.8008 33.4461 25.7306 33.6125C23.3989 33.9744 20.5895 34.0216 18.3727 34.4644C15.9936 34.9387 16.8114 37.6114 19.1499 37.3732L31.2953 35.8019C31.7571 35.948 31.6986 36.3121 31.7436 36.6808C31.9757 38.5802 30.9123 46.5219 30.3378 48.5158C29.4457 51.6133 25.0863 50.9368 22.3716 51.4021C20.9748 51.6403 16.4172 52.3461 15.5926 53.0924C14.3941 54.1782 15.7255 55.4932 17.0277 55.5426L29.351 53.7376C29.6191 54.0028 28.9343 60.2946 28.7856 61.2342C28.549 62.7155 28.2223 65.9884 26.5146 66.3683C23.1533 67.1124 17.5661 66.8246 14.518 68.1374C12.799 68.8769 13.2518 70.8213 15.1758 70.8685L27.4992 69.3288C27.4226 71.5654 27.6028 73.829 27.4947 76.0656C27.3279 79.5633 26.5237 83.1329 26.4245 86.626C26.3502 89.2403 26.3997 91.7399 29.2294 92.8346L40.9647 92.8841C43.6276 102.943 58.2579 101.188 58.7446 90.9981L85.6216 87.8241C85.5811 91.5421 86.7639 94.9723 90.3415 96.5975C97.8391 100.008 105.492 93.1673 102.178 85.4527C104.688 85.1042 107.213 84.7131 109.728 84.3961C111.433 84.1804 111.854 84.9604 113.15 83.3172C117.405 77.9178 113.314 68.497 111.733 62.5717C108.712 51.2402 106.398 39.7334 103.368 28.375C102.908 26.6486 102.099 21.1548 101.351 20.0826C100.901 19.4352 100.157 19.3228 99.4094 19.3813L70.5745 22.0495C68.1189 16.4883 62.8246 12.7883 56.8927 11.7228C58.7468 6.16161 66.3684 5.16356 71.2481 6.78202C76.957 8.67472 79.897 15.0137 81.2578 20.4445H84.966H84.9638ZM74.6343 15.4228C75.0736 14.382 72.2484 11.3227 71.4599 11.9903L73.4425 14.6338L74.6365 15.4228H74.6343ZM68.1437 12.523C67.9612 12.5365 67.63 12.9434 67.8733 13.3165C68.0761 13.6267 69.7184 14.2134 70.2636 14.6315C70.935 15.144 72.3656 17.5245 72.6472 17.5313C73.5056 17.556 72.4805 15.6094 72.2529 15.2879C71.6875 14.4899 69.0223 12.4623 68.1414 12.523H68.1437ZM25.5707 45.4789C26.3322 44.6697 25.7351 43.3704 24.7101 43.1771C24.2595 43.0917 23.5994 43.1412 23.115 43.1591C20.5197 43.2581 15.2772 43.4626 12.9725 44.1325C10.1428 44.9529 10.5303 47.2233 13.3352 47.1469C15.4214 47.0907 18.0663 46.5647 20.2178 46.3421C21.4772 46.2118 24.6335 46.477 25.5729 45.4789H25.5707ZM10.7759 55.6258C8.87897 55.9337 0.847399 56.0776 5.41402 58.9504C6.54272 58.312 13.4546 58.4064 13.4524 57.3027C12.7179 56.3743 11.0891 56.8261 10.7737 55.6258H10.7759ZM118.518 70.6842C116.932 71.118 117.928 76.4545 118.458 76.9985C120.875 79.4801 121.382 69.8592 118.518 70.6842ZM18.7039 90.8093C17.5188 90.888 14.0606 91.1869 13.1369 91.5961C11.3955 92.3671 12.0961 94.3452 13.8804 94.4104L23.0587 93.3044C24.0387 93.0504 24.0748 91.2589 23.2615 90.861C22.5495 90.5126 19.6726 90.7441 18.7039 90.8093Z" fill="white"/>
<path d="M84.964 20.4445H81.2557C79.895 15.0137 76.9572 8.67471 71.2461 6.78201C66.3663 5.16355 58.7448 6.1616 56.8906 11.7228C62.8225 12.7883 68.1168 16.4883 70.5725 22.0495L99.4073 19.3813C100.155 19.3206 100.899 19.4352 101.349 20.0826C102.1 21.1571 102.906 26.6508 103.366 28.375C106.396 39.7334 108.71 51.2402 111.731 62.5717C113.31 68.497 117.403 77.9178 113.148 83.3172C111.852 84.9604 111.431 84.1804 109.726 84.3961C107.211 84.7153 104.684 85.1042 102.176 85.4527C105.49 93.1673 97.837 100.008 90.3394 96.5975C86.7618 94.9701 85.579 91.5398 85.6196 87.8241L58.7425 90.9981C58.2581 101.188 43.6256 102.943 40.9627 92.8841L29.2273 92.8346C26.3977 91.7399 26.3481 89.2403 26.4225 86.626C26.5216 83.1351 27.3259 79.5633 27.4926 76.0656C27.5985 73.829 27.4205 71.5654 27.4971 69.3288L15.1738 70.8685C13.2498 70.8213 12.7992 68.8792 14.5159 68.1374C17.5663 66.8246 23.1513 67.1124 26.5126 66.3683C28.2203 65.9907 28.5469 62.7155 28.7835 61.2342C28.9344 60.2968 29.6171 54.0028 29.349 53.7376L17.0256 55.5426C15.7235 55.4931 14.392 54.1781 15.5905 53.0924C16.4151 52.3461 20.9727 51.6426 22.3695 51.4021C25.082 50.9367 29.4414 51.6133 30.3358 48.5158C30.9102 46.5242 31.9736 38.5802 31.7416 36.6808C31.6965 36.3121 31.7551 35.948 31.2932 35.8019L19.1479 37.3731C16.8094 37.6114 15.9893 34.9387 18.3706 34.4644C20.5852 34.0216 23.3968 33.9744 25.7286 33.6125C26.7987 33.4461 31.6379 32.783 32.1493 32.3559C33.1181 31.5489 32.708 27.9299 33.4583 27.0577C34.24 26.1496 37.4279 26.0911 38.6151 25.455C35.5692 15.1328 44.3645 10.5 53.4032 11.1518C56.5504 3.34727 66.9048 1.34218 74.0172 4.80838C80.4334 7.93516 82.7674 14.1302 84.9617 20.4445H84.964ZM53.7141 23.614C52.8782 19.7229 52.2857 15.9308 53.1824 11.9903L52.3533 14.0673C46.0227 14.1235 39.5929 16.8929 42.0869 24.3827L53.7118 23.6162L53.7141 23.614ZM56.0976 14.8945V19.2554C56.0976 19.8061 57.0033 22.8587 57.6003 23.0565L65.8977 22.4249C64.2599 18.4012 60.3894 15.506 56.0954 14.8968L56.0976 14.8945ZM59.4567 32.7808C57.7895 34.5633 53.6037 33.5316 53.7276 30.6386C53.7794 29.4539 55.7394 27.6579 53.464 26.9004C52.2564 26.498 46.694 26.8891 45.4189 27.3634C45.2116 27.4398 45.0562 27.5028 45.0066 27.7433L50.5149 80.5725C51.1142 80.9861 60.7138 79.5318 62.3179 79.3677C75.7564 78.001 88.9291 75.9802 102.309 74.3482C104.875 74.0358 107.851 74.1909 110.262 73.2985C111.203 71.8733 108.277 63.835 107.757 61.7737C105.272 51.9033 103.089 41.9813 100.669 32.1154C100.326 30.7172 98.6886 23.6072 98.0826 23.07C97.6207 22.6586 96.5641 22.5238 95.9491 22.535C92.9144 22.5845 89.3594 23.6949 86.2842 23.8815C86.5793 25.6191 88.332 25.6438 89.0507 26.7992C91.0017 29.9282 86.505 33.0618 83.9885 30.661C82.2109 28.9639 83.8578 27.3747 83.5086 26.5295C83.2292 25.8596 80.9335 24.6233 80.2059 24.5221L58.2086 26.788C58.1049 28.2851 59.7113 28.3345 60.0064 29.6158C60.2114 30.5059 60.0943 32.0929 59.4499 32.7808H59.4567ZM41.5259 28.1142C41.233 27.8332 36.333 29.1774 36.0243 30.1418L35.7067 32.0682C37.1913 32.2817 42.1229 30.7509 41.5326 33.5181C41.2285 34.9432 36.7993 34.8892 35.4791 35.2781L33.5889 50.0376C34.0192 50.44 41.1677 49.2396 42.6658 49.57C42.9024 49.6217 43.3012 50.1545 43.3845 50.0398C43.5242 42.6916 41.9359 35.4467 41.5259 28.1164V28.1142ZM35.4408 76.5938C35.3552 78.7001 35.5039 80.8265 35.4408 82.935L35.986 83.2273L46.3921 81.1795L46.8382 80.5591L43.6504 51.3593C40.6382 53.4184 36.5245 52.4226 33.0888 53.2385L31.5996 65.631C35.5399 66.2312 39.4329 64.1497 43.2741 64.8173C44.6033 65.912 44.2541 67.1955 42.6118 67.6271C40.8725 68.0834 31.8632 68.4633 31.3338 69.059C30.1037 73.9031 30.6512 79.0283 29.9009 83.9601L30.5182 84.3759L34.2716 83.3487C33.8232 80.6647 34.382 77.9628 34.65 75.3126C36.2654 74.7708 35.4656 76.0521 35.4431 76.5961L35.4408 76.5938ZM104.296 81.2199C103.417 81.166 103.046 81.883 102.255 82.2202C101.178 82.6788 100.419 82.4855 99.5357 82.6766C99.2969 82.7282 98.2313 83.0227 98.2065 83.3307C100.453 83.0879 103.003 83.4543 104.296 81.2222V81.2199ZM94.7055 86.0326C94.1333 86.0978 92.2746 86.5833 91.779 86.8283C89.2512 88.0826 91.0828 93.1606 94.9601 91.5871C97.5374 90.5418 97.7086 85.6864 94.7055 86.0303V86.0326ZM49.1429 87.8893C44.707 88.5682 45.6397 94.0283 49.6003 93.9136C53.1779 93.8102 54.1399 87.1251 49.1429 87.8893Z" fill="#5C2235"/>
<path d="M25.5707 45.4789C24.6312 46.477 21.4749 46.2118 20.2155 46.3421C18.064 46.5647 15.4214 47.0907 13.3329 47.1469C10.5281 47.2233 10.1406 44.9529 12.9702 44.1325C15.2749 43.4626 20.5197 43.2581 23.1127 43.1592C23.5994 43.1412 24.2572 43.0917 24.7078 43.1771C25.7329 43.3705 26.3321 44.6697 25.5684 45.4789H25.5707Z" fill="#5C2235"/>
<path d="M18.7037 90.8093C19.6725 90.7441 22.5494 90.5148 23.2614 90.861C24.0769 91.2589 24.0409 93.0504 23.0586 93.3044L13.8803 94.4104C12.096 94.3452 11.3953 92.3648 13.1368 91.5961C14.0628 91.1869 17.5187 90.888 18.7037 90.8093Z" fill="#5C2235"/>
<path d="M10.7757 55.6258C11.0911 56.8284 12.7199 56.3743 13.4544 57.3027C13.4544 58.4042 6.54248 58.312 5.41603 58.9504C0.847154 56.0776 8.87873 55.9338 10.7779 55.6258H10.7757Z" fill="#5C2235"/>
<path d="M118.518 70.6842C121.382 69.8592 120.875 79.4801 118.457 76.9985C117.928 76.4545 116.932 71.118 118.518 70.6842Z" fill="#5C2235"/>
<path d="M68.1437 12.523C69.0223 12.4623 71.6875 14.4899 72.2553 15.2879C72.485 15.6094 73.5079 17.556 72.6495 17.5313C72.3679 17.5223 70.9373 15.144 70.2659 14.6315C69.7207 14.2157 68.0761 13.6267 67.8756 13.3165C67.6323 12.9434 67.9635 12.5365 68.146 12.523H68.1437Z" fill="#5C2235"/>
<path d="M74.6341 15.4228L73.4401 14.6338L71.4575 11.9903C72.246 11.3227 75.0712 14.382 74.6318 15.4228H74.6341Z" fill="#5C2235"/>
<path d="M59.4565 32.7808C60.1008 32.0929 60.218 30.5059 60.013 29.6158C59.7178 28.3345 58.1115 28.2873 58.2152 26.788L80.2124 24.5221C80.9401 24.621 83.2381 25.8574 83.5152 26.5295C83.8666 27.3747 82.2175 28.9639 83.995 30.661C86.5115 33.0618 91.0083 29.9282 89.0573 26.7992C88.3364 25.6438 86.5859 25.6191 86.2907 23.8815C89.3659 23.6972 92.9233 22.5845 95.9557 22.535C96.5707 22.526 97.6273 22.6609 98.0892 23.07C98.6952 23.6095 100.333 30.7172 100.675 32.1154C103.095 41.9813 105.278 51.9011 107.763 61.7737C108.281 63.8372 111.21 71.8756 110.268 73.2985C107.858 74.1886 104.882 74.0335 102.316 74.3482C88.9379 75.9802 75.763 78.001 62.3244 79.3677C60.7204 79.5318 51.1208 80.9861 50.5215 80.5725L45.0132 27.7433C45.0627 27.5028 45.2182 27.4399 45.4255 27.3634C46.7006 26.8891 52.2607 26.4958 53.4706 26.9004C55.746 27.6602 53.7837 29.4562 53.7341 30.6386C53.6102 33.5293 57.7961 34.5611 59.4633 32.7808H59.4565ZM73.5168 38.2206C59.9296 39.7514 51.8124 54.2973 60.4883 65.8693C71.7821 80.9367 98.1207 74.2268 95.7484 53.4139C94.5589 42.9861 83.1502 37.1349 73.5168 38.2206Z" fill="white"/>
<path d="M35.4406 76.5938C35.4631 76.0498 36.2629 74.7686 34.6475 75.3103C34.3794 77.9605 33.8207 80.6647 34.2691 83.3464L30.5157 84.3737L29.8984 83.9578C30.6487 79.026 30.1012 73.9031 31.3313 69.0567C31.8585 68.4611 40.87 68.0812 42.6093 67.6249C44.2516 67.1933 44.6008 65.9097 43.2716 64.815C39.4327 64.1452 35.5397 66.2289 31.5971 65.6288L33.0863 53.2363C36.522 52.4203 40.6357 53.4161 43.6479 51.3571L46.8357 80.5568L46.3896 81.1772L35.9835 83.225L35.4383 82.9328C35.5014 80.8243 35.3527 78.6978 35.4383 76.5916L35.4406 76.5938Z" fill="white"/>
<path d="M41.5258 28.1142C41.9358 35.4467 43.5241 42.6893 43.3845 50.0376C43.3011 50.1522 42.9023 49.6195 42.6658 49.5678C41.1676 49.2374 34.0192 50.4377 33.5889 50.0354L35.4791 35.2759C36.7992 34.887 41.2284 34.941 41.5326 33.5158C42.1228 30.7487 37.1913 32.2795 35.7066 32.066L36.0243 30.1395C36.3329 29.1752 41.2329 27.8332 41.5258 28.112V28.1142Z" fill="white"/>
<path d="M53.7137 23.614L42.0888 24.3805C39.5925 16.8907 46.0246 14.1213 52.3552 14.0651L53.1843 11.9881C52.2876 15.9286 52.8801 19.7207 53.716 23.6118L53.7137 23.614Z" fill="white"/>
<path d="M56.0977 14.8946C60.3894 15.5037 64.2622 18.399 65.9 22.4226L57.6026 23.0543C57.0056 22.8565 56.0999 19.8039 56.0999 19.2532V14.8923L56.0977 14.8946Z" fill="white"/>
<path d="M49.1428 87.8893C54.1397 87.1251 53.1778 93.8102 49.6002 93.9136C45.6418 94.0283 44.7069 88.5682 49.1428 87.8893Z" fill="white"/>
<path d="M94.7051 86.0326C97.7082 85.6887 97.5393 90.5441 94.9597 91.5893C91.0825 93.1606 89.2509 88.0849 91.7786 86.8306C92.2743 86.5856 94.1329 86.1001 94.7051 86.0349V86.0326Z" fill="white"/>
<path d="M104.296 81.2199C103.001 83.4521 100.453 83.0857 98.2065 83.3284C98.2336 83.0227 99.2992 82.726 99.5358 82.6743C100.419 82.4833 101.18 82.6788 102.255 82.218C103.044 81.8808 103.417 81.1637 104.296 81.2177V81.2199Z" fill="white"/>
<path d="M73.5168 38.2206C83.1502 37.1349 94.5588 42.9861 95.7484 53.4139C98.1207 74.2291 71.7821 80.9367 60.4883 65.8693C51.8124 54.2951 59.9273 39.7492 73.5168 38.2206ZM72.7125 40.3246C66.8843 41.2327 60.2269 46.9963 59.078 52.8812C55.6536 70.4212 83.1276 79.6082 91.8937 63.9564C99.3102 50.712 86.4304 38.1891 72.7125 40.3246Z" fill="#5C2235"/>
<path d="M72.7124 40.3246C86.4325 38.1891 99.3123 50.712 91.8936 63.9564C83.1275 79.6082 55.6535 70.4212 59.0779 52.8812C60.2269 46.9963 66.8819 41.2328 72.7124 40.3246ZM79.4035 43.3008V47.1311C77.876 47.4279 76.5581 48.2191 75.4339 49.2441C75.3483 48.4596 76.4973 46.7467 75.7133 46.187C74.4674 45.6925 74.375 46.6119 73.9042 47.3155C73.742 47.5582 73.9425 47.801 73.3139 47.6594C73.5054 46.0724 72.9535 44.8653 71.1962 45.0204L71.7234 47.6594L70.3987 47.6639C71.0993 41.8846 62.8537 45.5936 64.8228 48.8687C65.1787 49.4599 65.8411 49.5049 66.3164 49.7521C66.5845 49.8937 66.8188 49.6105 66.6927 50.3006C65.3544 50.6445 63.836 50.8289 63.0159 52.0584C62.7974 52.3866 62.8064 53.007 62.66 53.1509C62.3446 53.4633 60.8712 53.2318 60.932 54.884C60.9433 55.1875 61.6935 58.2288 61.8399 58.7121C62.2747 60.1395 63.3066 61.5017 64.3339 62.5649C65.7239 64.0036 65.3319 63.2168 66.3592 65.0309C68.2404 68.3532 74.9631 69.8076 78.4843 69.6053C80.4331 69.4929 85.8107 68.0138 86.8764 66.3526C87.4396 65.4737 87.2008 64.397 87.39 64.089C87.4869 63.9294 89.8502 62.6998 90.4968 62.0367C92.6122 59.8653 92.9322 56.0372 92.2653 53.1936C91.8553 51.4403 90.9474 52.0112 90.3143 51.5751C90.1138 51.438 89.9718 50.3388 89.697 49.941C89.0369 48.9811 87.8767 49.2149 87.0904 48.8418C86.2028 48.4214 86.3289 47.4773 84.6325 47.7156C84.3238 47.7583 82.5418 48.7676 82.5823 48.0595C82.6229 47.3357 87.6852 45.135 83.2807 43.9864L81.7848 45.5486C81.8276 44.881 82.348 44.0628 81.9245 43.4244C81.6339 42.9883 79.6198 42.5927 79.399 43.303L79.4035 43.3008Z" fill="white"/>
<path d="M79.4039 43.3008C79.6247 42.5905 81.6388 42.9861 81.9294 43.4222C82.3552 44.0606 81.8348 44.8788 81.7897 45.5464L83.2856 43.9841C87.6923 45.1328 82.6278 47.3335 82.5872 48.0573C82.5467 48.7653 84.3287 47.756 84.6374 47.7133C86.3338 47.4728 86.2054 48.4169 87.0953 48.8395C87.8793 49.2127 89.0395 48.9766 89.7019 49.9387C89.9767 50.3388 90.1186 51.4358 90.3192 51.5729C90.9522 52.009 91.8579 51.438 92.2702 53.1914C92.937 56.0349 92.6171 59.863 90.5016 62.0344C89.8551 62.6976 87.4918 63.9271 87.3949 64.0867C87.2079 64.3947 87.4445 65.4714 86.8812 66.3504C85.8156 68.0138 80.438 69.4929 78.4892 69.603C74.9679 69.8053 68.2453 68.351 66.3641 65.0286C65.3368 63.2146 65.7288 64.0013 64.3388 62.5627C63.3114 61.4995 62.2796 60.1395 61.8448 58.7099C61.6984 58.2266 60.9482 55.1875 60.9369 54.8818C60.8761 53.2318 62.3495 53.4611 62.6649 53.1486C62.8113 53.0025 62.8023 52.3844 63.0208 52.0562C63.8386 50.8266 65.3593 50.6423 66.6975 50.2984C66.8237 49.6083 66.5894 49.8892 66.3213 49.7499C65.8459 49.5004 65.1836 49.4577 64.8276 48.8665C62.8586 45.5914 71.1042 41.8824 70.4036 47.6616L71.7283 47.6571L71.2011 45.0181C72.9606 44.863 73.5126 46.0701 73.3188 47.6571C73.9474 47.7988 73.7469 47.5582 73.9091 47.3132C74.3799 46.6096 74.4723 45.6902 75.7181 46.1848C76.5021 46.7445 75.3532 48.4574 75.4388 49.2419C76.563 48.2146 77.8809 47.4256 79.4084 47.1289V43.2985L79.4039 43.3008ZM82.0938 51.5751C82.0037 46.9783 78.4644 47.7403 75.984 50.2175C76.608 52.3439 78.1896 52.3327 79.8094 51.1008C80.8074 52.3282 82.202 53.0677 83.7925 52.4338C85.0429 51.9348 84.7658 51.1031 83.5717 51.4246C83.0896 51.5549 82.8441 52.1506 82.0961 51.5751H82.0938ZM72.5708 51.3032C72.456 51.238 72.3658 50.7569 72.136 50.5614C71.0952 49.6757 70.4193 50.0623 69.3424 50.5704C68.9392 51.0604 70.5725 51.5369 70.9127 51.773C71.3813 52.0966 71.6652 52.6249 72.1586 52.9171L74.3709 51.8831C74.1411 51.0289 73.0327 51.5617 72.5708 51.3032ZM68.5742 56.1451C68.8265 55.7584 71.0772 56.2979 71.0749 54.3985C71.0704 51.9505 65.9946 51.0919 65.4202 53.6634C64.8952 56.0147 67.1233 55.5381 67.637 56.3833C67.9209 56.8509 67.0805 57.5545 68.4188 57.9613C69.2771 58.2221 68.243 56.6576 68.5742 56.1451ZM86.8182 56.1158C87.3634 56.707 88.9134 53.8725 87.5954 52.8272C86.3743 51.8606 84.527 53.2611 84.4323 54.657L86.7821 55.374L86.8182 56.1158ZM76.991 53.5038C74.3664 51.1188 71.5232 55.2616 74.5714 56.0529C76.4616 56.5429 76.6283 54.9537 76.991 53.5038ZM77.8719 57.1072C78.1423 57.3814 78.4509 57.3881 78.7438 57.197C78.8857 57.1049 81.1138 55.0773 81.2513 54.92C81.5284 54.6008 81.6838 54.3962 81.3999 53.9938C80.5033 52.7216 76.7319 55.9495 77.8719 57.1072ZM79.6697 57.9636C79.9648 58.258 83.4974 56.0282 83.3735 55.4595C83.0446 53.9332 78.9826 57.278 79.6697 57.9636ZM63.2506 57.9658C63.6651 61.3196 67.3329 63.1224 70.345 63.7001C75.191 64.6307 85.0113 64.5228 88.9404 61.2724C90.7089 59.8091 91.3622 58.4738 91.0536 56.1158C89.1769 57.215 87.0818 57.8714 84.9753 58.3705C79.8139 59.5933 73.4224 59.9327 68.1529 59.2831C66.4858 59.0785 64.7443 58.7503 63.2529 57.9658H63.2506ZM74.6345 58.2288C74.9229 56.6239 71.726 56.6418 72.3861 58.2311H74.6345V58.2288Z" fill="#5C2235"/>
<path d="M63.2503 57.9658C64.7417 58.7503 66.4832 59.0785 68.1503 59.2831C73.4199 59.9327 79.8113 59.5933 84.9727 58.3705C87.0792 57.8714 89.1744 57.215 91.051 56.1158C91.3597 58.4716 90.7063 59.8068 88.9378 61.2724C85.0088 64.5251 75.1884 64.6307 70.3424 63.7001C67.3303 63.1224 63.6626 61.3196 63.248 57.9658H63.2503Z" fill="white"/>
<path d="M68.5739 56.1451C68.2404 56.6576 69.2745 58.2221 68.4184 57.9613C67.0802 57.5545 67.9228 56.8509 67.6367 56.3833C67.123 55.5381 64.8949 56.0147 65.4198 53.6634C65.9943 51.0919 71.0701 51.9483 71.0746 54.3985C71.0768 56.2979 68.8262 55.7584 68.5739 56.1451Z" fill="white"/>
<path d="M82.0936 51.5751C82.8438 52.1506 83.0893 51.5549 83.5692 51.4245C84.7632 51.1008 85.0426 51.9348 83.79 52.4338C82.1994 53.0677 80.8049 52.3282 79.8069 51.1008C78.187 52.3327 76.6078 52.3439 75.9814 50.2174C78.4619 47.7381 81.9989 46.9783 82.0913 51.5751H82.0936Z" fill="white"/>
<path d="M76.991 53.5038C76.6283 54.9537 76.4638 56.5429 74.5714 56.0529C71.5209 55.2617 74.3663 51.1189 76.991 53.5038Z" fill="white"/>
<path d="M86.8179 56.1158L86.7819 55.374L84.4321 54.657C84.5268 53.2633 86.3741 51.8606 87.5952 52.8272C88.9131 53.8702 87.3631 56.7048 86.8179 56.1158Z" fill="white"/>
<path d="M77.8719 57.1071C76.7319 55.9472 80.5033 52.7215 81.3999 53.9938C81.6838 54.3984 81.5283 54.6008 81.2512 54.9199C81.1138 55.0795 78.8857 57.1049 78.7437 57.197C78.4509 57.3881 78.1422 57.3814 77.8719 57.1071Z" fill="white"/>
<path d="M72.5708 51.3032C73.0326 51.5639 74.1411 51.0289 74.3709 51.8831L72.1585 52.9171C71.6651 52.6227 71.3813 52.0944 70.9127 51.773C70.5725 51.5369 68.9391 51.0626 69.3424 50.5704C70.4193 50.0623 71.0952 49.6757 72.136 50.5614C72.3658 50.7569 72.4559 51.238 72.5708 51.3032Z" fill="white"/>
<path d="M79.6695 57.9636C78.9846 57.278 83.0443 53.9332 83.3732 55.4595C83.4972 56.0304 79.9624 58.2603 79.6695 57.9636Z" fill="white"/>
<path d="M74.6343 58.2288H72.3859C71.7258 56.6418 74.9227 56.6239 74.6343 58.2288Z" fill="white"/>
</svg>
