<svg width="274" height="319" viewBox="0 0 274 319" fill="none" xmlns="http://www.w3.org/2000/svg">
<path d="M128.019 49.6358C123.868 40.0245 129.167 21.8615 132.659 12.3589C143.817 -15.249 162.672 9.90683 171.098 24.8841C175.195 32.1045 173.6 33.069 167.386 36.9C157.318 42.7007 139.851 53.5822 128.019 49.6358Z" fill="#5C2839"/>
<path d="M75.2289 52.0504C72.3911 52.4375 67.1963 52.8655 68.7236 48.5115C69.7429 45.1187 75.6285 37.1308 79.4314 37.5044C84.9309 38.3976 86.3227 46.4126 83.9692 50.6239C82.0152 54.156 78.3308 52.8451 75.2289 52.0504Z" fill="#5C2839"/>
<path d="M103.983 52.9133C101.436 50.5631 105.219 49.3472 107.166 48.8955C117.579 39.3114 123.482 67.9925 103.983 52.9133Z" fill="#5C2839"/>
<path d="M91.3955 31.7717C87.5485 29.751 68.1072 22.3133 69.0419 17.4669C69.6142 14.4986 77.3182 10.5386 79.6514 8.95594C84.4263 6.33066 93.1835 -1.12404 98.5746 1.27369C106.224 5.96387 103.996 39.0668 91.3955 31.7717Z" fill="#5C2839"/>
<path d="M274 319L29.9086 319C10.4843 292.136 0.535053 264.542 -1.03254e-05 236.217C29.465 229.781 40.1288 191.428 19.0349 169.964C53.7489 173.74 85.9569 142.624 78.7506 107.82C135.456 72.4279 203.861 55.7219 274 49.3506L274 319Z" fill="#5C2839"/>
</svg>
