<svg width="24" height="23" viewBox="0 0 24 23" fill="none" xmlns="http://www.w3.org/2000/svg">
<path d="M9.6 9.93182C8.28 9.93182 7.2 11.0248 7.2 12.3673C7.2 13.0444 7.464 13.6384 7.908 14.0899L12 18.2479L16.104 14.0899C16.536 13.6503 16.8 13.0325 16.8 12.3673C16.8 11.0248 15.72 9.93182 14.4 9.93182C13.752 9.93182 13.14 10.2051 12.708 10.6446L12 11.3574L11.304 10.6565C11.0827 10.4298 10.8181 10.249 10.5256 10.1246C10.233 10.0002 9.91839 9.93467 9.6 9.93182ZM12 0L22.836 6.71229C23.532 7.1281 24 7.87655 24 8.7438V20.624C24 21.9308 22.92 23 21.6 23H2.4C1.08 23 0 21.9308 0 20.624V8.7438C0 7.87655 0.468 7.1281 1.164 6.71229L12 0ZM2.4 11.1198V20.624H21.6V11.1198L19.2 12.6049V12.3673C19.2 11.7138 19.056 11.0604 18.804 10.4664L21.6 8.7438L12 2.80372L2.4 8.7438L5.196 10.4664C4.944 11.0604 4.8 11.7138 4.8 12.3673V12.6049L2.4 11.1198Z" fill="#5C2839"/>
</svg>
