<svg width="70" height="24" viewBox="0 0 70 24" fill="none" xmlns="http://www.w3.org/2000/svg">
<path d="M6.4475 20.8333C7.12908 20.8333 7.79627 20.4004 8.44652 19.5329C9.09678 18.6654 9.60902 17.5315 9.98072 16.1279L12.2439 16.7468C11.7477 18.5842 11.0348 20.0698 10.1052 21.2045C9.03073 22.5253 7.81151 23.1856 6.4475 23.1856C5.51784 23.1856 4.63899 22.8711 3.81262 22.2412C2.98626 21.6121 2.2725 20.6989 1.6739 19.5016C0.557967 17.3345 0 14.7294 0 11.6854C0 8.64145 0.557967 6.03634 1.6739 3.86921C2.27335 2.69306 2.98626 1.79001 3.81262 1.16093C4.63899 0.531846 5.51784 0.216465 6.4475 0.216465C7.62524 0.216465 8.69968 0.711949 9.67083 1.70208C10.5175 2.54847 11.2203 3.69418 11.7782 5.13837L9.57769 5.97377C9.18483 4.92106 8.70476 4.08567 8.13663 3.46673C7.56766 2.84779 7.00547 2.53832 6.4475 2.53832C5.47636 2.53832 4.57717 3.33313 3.75081 4.92191C2.82115 6.77956 2.35632 9.03886 2.35632 11.7015C2.35632 14.3641 2.82115 16.6132 3.75081 18.4498C4.57717 20.0394 5.47636 20.8333 6.4475 20.8333ZM0.867851 9.50391V9.84467C0.867851 10.0104 0.949974 10.0924 1.11592 10.0924C1.30219 10.0924 1.38433 10.0104 1.36401 9.84467V9.50391C1.36401 9.33903 1.28103 9.25616 1.11592 9.25616C0.929654 9.25616 0.847531 9.33903 0.867851 9.50391ZM0.960985 16.3139C0.960985 16.4171 1.00755 16.4898 1.10069 16.5304C1.19382 16.5718 1.28103 16.5718 1.36401 16.5304C1.44614 16.4889 1.48762 16.4171 1.48762 16.3139C1.44613 14.3742 1.41481 12.4447 1.39449 10.5253C1.39449 10.4222 1.34792 10.3503 1.25478 10.3089C1.16165 10.2674 1.07359 10.2674 0.991464 10.3089C0.908489 10.3503 0.867851 10.4222 0.867851 10.5253C0.909339 12.4447 0.939818 14.3742 0.960985 16.3139Z" fill="#EFECE4"/>
<path d="M23.713 3.93178C24.3125 5.29395 24.7155 7.02731 24.9221 9.13187C25.2735 12.4134 25.1702 16.3241 24.6122 20.8638C24.5089 21.6484 24.3955 22.4221 24.271 23.1856H21.9155C22.0391 22.4018 22.1424 21.6282 22.2254 20.8638C22.4938 18.8827 22.6597 17.0149 22.7216 15.2612H15.3749C15.4985 17.0157 15.7051 18.8827 15.9947 20.8638C16.1183 21.6273 16.2631 22.4018 16.429 23.1856H14.0422C13.8974 22.4018 13.7636 21.6282 13.6392 20.8638C12.9779 16.4678 12.8027 12.64 13.1125 9.37962C13.2988 7.29535 13.6807 5.56199 14.2598 4.17952C14.9211 2.61104 15.8194 1.51775 16.9565 0.897966C17.3485 0.691653 17.793 0.547065 18.2892 0.464202C19.2603 0.278182 20.1696 0.382187 21.0172 0.773673C22.1534 1.31059 23.0526 2.36329 23.7139 3.93093L23.713 3.93178ZM13.8559 15.7871C13.8762 15.8083 13.8873 15.8548 13.8873 15.9267C13.8873 15.9985 13.8974 16.056 13.9186 16.0966C13.9389 16.2826 14.0219 16.3646 14.1667 16.3444C14.2285 16.3444 14.2903 16.319 14.3529 16.2666C14.4147 16.215 14.4351 16.1583 14.4147 16.0966C14.4147 16.0552 14.4097 15.9985 14.3995 15.9267C14.3885 15.8548 14.3843 15.8083 14.3843 15.7871C14.3631 15.6011 14.281 15.509 14.1362 15.509C14.0532 15.509 13.9863 15.5352 13.9347 15.5867C13.883 15.6383 13.8568 15.706 13.8568 15.788L13.8559 15.7871ZM15.0032 22.7832C15.065 22.7832 15.1268 22.7578 15.1895 22.7054C15.2513 22.6538 15.2716 22.587 15.2513 22.5041C15.1683 21.8649 15.0447 20.9103 14.8796 19.6411C14.7136 18.372 14.59 17.4174 14.5079 16.7781C14.4867 16.6132 14.4046 16.5304 14.2598 16.5304C14.198 16.5304 14.1362 16.5566 14.0735 16.6082C14.0117 16.6597 13.9804 16.7164 13.9804 16.7781C14.0625 17.4182 14.187 18.372 14.3521 19.6411C14.5172 20.9103 14.6518 21.8649 14.7551 22.5041C14.7754 22.6902 14.8584 22.7823 15.0032 22.7823V22.7832ZM15.4367 9.59607C15.3334 10.6285 15.2919 11.7319 15.3131 12.9081H22.7834C22.7834 11.6499 22.7216 10.4729 22.5971 9.37877C22.4108 7.62511 22.0908 6.18008 21.6361 5.04536C21.1814 3.91064 20.6336 3.1877 19.9935 2.87823C19.3941 2.58906 18.754 2.62034 18.0716 2.97124C17.4306 3.32214 16.8828 4.02394 16.429 5.07664C15.9328 6.2528 15.6026 7.75955 15.4367 9.59607Z" fill="#EFECE4"/>
<path d="M25.4487 0.309475C27.2462 0.289182 29.0751 0.278191 30.9352 0.278191C32.7954 0.278191 34.6751 0.289182 36.5149 0.309475V2.69306C35.0679 2.67276 33.6116 2.66177 32.1443 2.66177C32.1443 9.45148 32.1545 16.2928 32.1756 23.1848H29.8202V2.66177H25.4496V0.309475H25.4487ZM30.6567 14.7657C30.6567 14.8072 30.6618 14.8638 30.6719 14.9357C30.6821 15.0084 30.6872 15.0549 30.6872 15.0752C30.6872 15.2612 30.7693 15.3534 30.9352 15.3534C31.1004 15.3331 31.1833 15.2401 31.1833 15.0752V14.7657C31.1833 14.5797 31.1004 14.4977 30.9352 14.518C30.749 14.518 30.6567 14.6008 30.6567 14.7657ZM30.7803 21.5757C30.7803 21.6789 30.8269 21.7516 30.92 21.7922C31.0131 21.8336 31.1003 21.8336 31.1833 21.7922C31.2655 21.7508 31.3069 21.6789 31.3069 21.5757C31.2655 19.6361 31.224 17.7065 31.1833 15.7871C31.1833 15.684 31.1418 15.6121 31.0597 15.5707C30.9767 15.5293 30.8938 15.5293 30.8116 15.5707C30.7287 15.6121 30.688 15.684 30.688 15.7871C30.7083 17.7065 30.7397 19.6361 30.7811 21.5757H30.7803Z" fill="#EFECE4"/>
<path d="M40.6374 3.87006C40.121 4.55072 39.7798 5.38696 39.6147 6.37709C39.4487 7.36807 39.3463 8.72939 39.3048 10.4636V10.9895C40.2344 11.0107 41.2267 11.0208 42.2809 11.0208V13.3427H39.2743C39.2531 14.5806 39.2531 15.799 39.2743 16.9954C39.3776 18.213 39.6976 19.1524 40.2353 19.8119C40.7517 20.452 41.2996 20.8131 41.8778 20.8951C42.6221 20.9982 43.324 20.7403 43.9861 20.1214L45.5982 21.8243C44.5855 22.795 43.4484 23.2795 42.1886 23.2795C41.982 23.2795 41.7644 23.2584 41.5375 23.2178C40.3386 23.0318 39.2946 22.3925 38.4064 21.2984C37.5801 20.2668 37.0839 18.9047 36.9188 17.2119V17.1806C36.857 16.4999 36.846 15.4887 36.8875 14.1468C36.8875 13.5896 36.8976 13.0222 36.9188 12.4439C36.9391 11.7429 36.9501 11.0715 36.9501 10.4315C36.9705 9.50306 36.9967 8.78097 37.028 8.26434C37.0594 7.74856 37.1313 7.09327 37.2448 6.29845C37.3582 5.50449 37.5445 4.79254 37.8028 4.16261C38.061 3.53353 38.3861 2.95011 38.779 2.41319C39.729 1.21674 40.8144 0.545377 42.0336 0.40079C42.6534 0.318772 43.2681 0.400794 43.8777 0.648538C44.4873 0.896282 44.9471 1.1491 45.257 1.40699C45.5668 1.66488 45.8463 1.93883 46.0935 2.22716L44.296 3.74407C43.655 2.98055 42.9938 2.64063 42.3122 2.72265C41.7331 2.78437 41.1751 3.16656 40.6383 3.86836L40.6374 3.87006ZM37.724 9.25616V9.58086C37.724 9.65358 37.7494 9.7153 37.8019 9.76687C37.8536 9.81845 37.9103 9.84467 37.9721 9.84467C38.1584 9.82438 38.2506 9.73136 38.2506 9.56648V9.25701C38.2295 9.19528 38.199 9.13356 38.1575 9.07099C38.116 9.00927 38.0542 8.98898 37.9712 9.00927C37.8053 9.00927 37.7232 9.09213 37.7232 9.25701L37.724 9.25616ZM37.8476 16.0349C37.8476 16.138 37.8891 16.2158 37.9712 16.2674C38.0534 16.319 38.1363 16.3241 38.2193 16.2826C38.3015 16.2412 38.3429 16.1592 38.3429 16.0349C38.3429 15.3957 38.3277 14.436 38.2964 13.1558C38.265 11.8765 38.2498 10.9168 38.2498 10.2767C38.2498 10.1736 38.2032 10.0966 38.1101 10.0442C38.017 9.99264 37.9289 9.99264 37.8468 10.0442C37.7638 10.0958 37.7232 10.1736 37.7232 10.2767C37.7647 12.1961 37.8053 14.1155 37.8468 16.034L37.8476 16.0349Z" fill="#EFECE4"/>
<path d="M52.2302 0.340757C53.1801 0.299325 54.059 0.671358 54.865 1.45518C55.6711 2.23984 56.2494 3.15811 56.6007 4.20996C56.9309 5.13837 57.0656 6.15979 57.0038 7.27421C56.942 8.2449 56.7252 9.24517 56.3527 10.2767C55.6499 12.279 54.6059 13.9193 53.2216 15.1986C52.5189 15.8176 51.7543 16.3131 50.928 16.6843C51.2582 17.1797 51.5892 17.6237 51.9203 18.0152C52.5815 18.7584 53.3046 19.3359 54.0903 19.7485C54.4417 19.9142 54.7617 20.0165 55.0513 20.058L54.6796 22.3798C54.1631 22.2978 53.6153 22.1118 53.037 21.8226C51.9829 21.2866 51.0219 20.5222 50.1541 19.5321C49.8027 19.1406 49.4725 18.7068 49.1618 18.2316C49.2236 19.883 49.2955 21.5132 49.3785 23.1222L47.0535 23.2457C46.8469 19.5726 46.7123 15.8683 46.6505 12.1327V12.071C46.609 9.22319 46.9604 6.75758 47.7046 4.67247C48.0966 3.51662 48.6038 2.58821 49.2236 1.88641C50.1117 0.896281 51.1142 0.380496 52.2302 0.339064V0.340757ZM47.5184 15.0135V15.3542C47.5184 15.5402 47.6005 15.6223 47.7664 15.602C47.9527 15.602 48.045 15.5199 48.045 15.3542V15.0135C48.0238 14.8486 47.9315 14.7657 47.7664 14.7657C47.6013 14.7657 47.5184 14.8486 47.5184 15.0135ZM47.6428 21.8235C47.6428 21.9266 47.6843 21.9994 47.7664 22.0399C47.8486 22.0814 47.9315 22.0814 48.0145 22.0399C48.0966 21.9985 48.1381 21.9266 48.1381 21.8235C48.117 19.9041 48.0865 17.9746 48.045 16.0349C48.045 15.9317 47.9984 15.8599 47.9053 15.8184C47.8121 15.777 47.7241 15.777 47.642 15.8184C47.559 15.8599 47.5184 15.9317 47.5184 16.0349C47.5598 17.9746 47.6005 19.9041 47.642 21.8235H47.6428ZM54.1521 9.50391C54.7719 7.77055 54.854 6.26463 54.4002 4.98447C54.1936 4.36554 53.8837 3.82862 53.4705 3.37457C53.0565 2.92051 52.6747 2.6939 52.3233 2.6939C51.8686 2.6939 51.4241 2.94165 50.9906 3.43714C50.5766 3.91233 50.2159 4.58284 49.906 5.44952C49.2651 7.28689 48.9653 9.48447 49.0068 12.0431V12.1048C49.0068 13.0129 49.0272 13.921 49.0686 14.8291C50.0186 14.6228 50.8763 14.1688 51.6417 13.467C52.7365 12.4557 53.5738 11.135 54.1521 9.50476V9.50391Z" fill="#EFECE4"/>
<path d="M67.5738 0.0930077L69.9293 0C70.0944 3.01352 69.9708 5.69558 69.5576 8.04873C69.2265 9.84382 68.7312 11.31 68.07 12.4447C67.3257 13.7452 66.3546 14.5915 65.1565 14.983C65.1768 17.8308 65.1879 20.5137 65.1879 23.0318H62.8324V15.1378C62.7291 15.1175 62.6258 15.0963 62.5225 15.076C61.2618 14.7463 60.2288 13.8686 59.4228 12.4447C58.8233 11.3717 58.3585 9.98925 58.0283 8.29647C57.5736 5.9856 57.367 3.26126 57.4085 0.124292L59.764 0.155577C59.7022 3.14795 59.8876 5.71756 60.322 7.86355C60.6115 9.32888 60.9934 10.4847 61.4692 11.3303C61.9654 12.1767 62.5233 12.6823 63.1431 12.8472C63.4327 12.9301 63.773 12.9301 64.1659 12.8472C65.6535 12.558 66.6763 10.8247 67.2343 7.6471C67.6263 5.47997 67.7406 2.96278 67.5755 0.0938541L67.5738 0.0930077ZM63.6994 15.7871V16.1279C63.6994 16.1896 63.7248 16.2471 63.7773 16.2978C63.8289 16.3494 63.8857 16.3756 63.9475 16.3756C64.1337 16.3756 64.2159 16.2936 64.1955 16.1279V15.7871C64.1955 15.6011 64.1126 15.5191 63.9475 15.5394C63.7612 15.5394 63.6791 15.6223 63.6994 15.7871ZM63.7925 22.598C63.7925 22.7011 63.8391 22.7739 63.9322 22.8144C64.0254 22.8559 64.1126 22.8559 64.1955 22.8144C64.2777 22.773 64.3192 22.7011 64.3192 22.598C64.298 21.9588 64.2777 20.994 64.2573 19.7037C64.2362 18.4142 64.226 17.4495 64.226 16.8094C64.226 16.7062 64.1795 16.6344 64.0863 16.5929C63.9932 16.5515 63.9051 16.5515 63.823 16.5929C63.74 16.6344 63.6994 16.7062 63.6994 16.8094C63.6994 17.4495 63.7146 18.4142 63.746 19.7037C63.7773 20.994 63.7925 21.9588 63.7925 22.598Z" fill="#EFECE4"/>
</svg>
