<svg width="14" height="14" viewBox="0 0 14 14" fill="none" xmlns="http://www.w3.org/2000/svg">
<path d="M6.66667 0C3 0 0 3 0 6.66667C0 10.3333 3 13.3333 6.66667 13.3333C10.3333 13.3333 13.3333 10.3333 13.3333 6.66667C13.3333 3 10.3333 0 6.66667 0ZM6.66667 12C3.72667 12 1.33333 9.60667 1.33333 6.66667C1.33333 3.72667 3.72667 1.33333 6.66667 1.33333C9.60667 1.33333 12 3.72667 12 6.66667C12 9.60667 9.60667 12 6.66667 12ZM9.72667 3.72L5.33333 8.11333L3.60667 6.39333L2.66667 7.33333L5.33333 10L10.6667 4.66667L9.72667 3.72Z" fill="#5C2839"/>
</svg>
