<svg width="115" height="109" viewBox="0 0 115 109" fill="none" xmlns="http://www.w3.org/2000/svg">
<path d="M94.844 31.6358C104.885 36.9427 110.453 48.2841 105.76 59.0946C97.9063 77.1897 74.6954 82.9897 57.2772 86.6796C53.4486 87.4909 44.3789 89.8327 41.0009 88.4539C37.0506 86.8412 35.1457 81.3695 33.4472 77.6893C26.7848 63.2525 17.5734 42.0528 22.2744 26.1536C29.4444 1.90074 60.1197 3.8447 68.1807 26.311C68.4225 26.9826 69.2607 30.5428 69.4788 30.6031C73.5822 28.8505 78.0039 28.0091 82.4656 28.2895C86.7462 28.56 91.024 29.6162 94.8411 31.6317L94.844 31.6358ZM65.868 37.6652C65.4134 35.219 65.3065 32.7291 64.7054 30.2991C59.1087 7.66949 30.4505 7.18097 26.2429 31.2077C23.9163 44.4982 31.8837 62.0844 37.2392 74.1987C38.1632 76.2864 40.6771 82.5695 42.4631 83.5246C42.9719 83.796 43.9066 83.9251 44.4994 83.905C48.584 83.7627 56.7781 81.5119 61.0527 80.4722C75.9212 76.8567 97.8558 70.7785 102.108 53.7534C104.702 43.3596 95.9103 34.9457 86.2711 33.0604C79.3625 31.7093 71.4892 33.4689 65.867 37.6621L65.868 37.6652Z" fill="white"/>
<path d="M65.8678 37.6647C71.491 33.4695 79.3612 31.7108 86.2719 33.0631C95.9111 34.9483 104.703 43.3623 102.109 53.756C97.8577 70.7791 75.92 76.8582 61.0535 80.4748C56.7788 81.5144 48.5848 83.7653 44.5002 83.9076C43.9093 83.9288 42.9747 83.7997 42.4638 83.5272C40.6798 82.5731 38.164 76.289 37.2399 74.2013C31.8834 62.089 23.916 44.5028 26.2437 31.2103C30.4513 7.18356 59.1095 7.67211 64.7062 30.3017C65.3072 32.7317 65.4142 35.2216 65.8687 37.6678L65.8678 37.6647ZM79.485 42.5277L83.8286 41.7083L84.7267 41.1351C82.8599 41.0974 81.1556 41.8035 79.484 42.5297L79.485 42.5277ZM73.5759 37.287C73.1719 36.934 72.8964 37.2303 72.5216 37.3489C71.1027 37.8022 67.5947 39.5972 66.4423 40.5035C66.028 40.8302 65.8155 40.7118 66.1325 41.3955L73.5749 37.289L73.5759 37.287ZM95.4028 49.8227L92.0452 56.118L93.6975 54.1689L95.4028 49.8227ZM78.1031 45.6885L81.3177 45.0134L81.4526 44.186L78.1031 45.6885ZM31.0656 32.577C31.9764 29.7637 32.7238 26.9549 34.1184 24.3257C31.9523 25.797 31.1871 29.3045 30.8107 31.7864C30.7429 32.2342 30.3573 32.3445 31.0656 32.577ZM63.6659 45.1777L62.2796 43.837L62.2301 45.9022L63.6659 45.1777ZM82.5546 61.537C84.0385 60.9043 85.9229 60.5642 86.4079 58.8027L82.5546 61.537ZM48.5131 44.8787C47.925 44.3969 47.8602 44.8871 47.6924 45.4218L47.6932 49.2309L48.5131 44.8787ZM65.279 56.2182L62.869 57.0218C62.2631 57.5547 62.6818 58.4404 62.2491 59.0936C63.8844 58.8474 64.6795 57.6486 65.279 56.2182ZM38.7409 51.9461C39.2777 50.4083 38.8395 48.3097 38.1644 46.8466C37.9365 48.4421 38.3539 50.3691 38.7409 51.9461ZM73.4154 66.8478L71.3334 67.3907L68.0329 69.0646C68.309 69.9303 73.0765 67.574 73.4154 66.8478ZM36.8018 58.3967C36.9639 56.1827 36.7565 53.8811 36.1466 51.7598C35.8469 53.8775 36.1931 56.3448 36.8018 58.3967ZM67.2248 72.8295C67.0558 72.3088 63.6081 73.6697 63.2889 74.0192C63.4777 74.5988 66.8621 73.0692 67.2248 72.8295ZM50.5182 68.7084C52.3381 68.6473 51.6252 66.7716 52.0142 65.6162L50.5719 66.4391L50.5182 68.7084ZM39.4413 66.3926C39.8957 66.2299 39.6216 63.6609 39.0352 63.7838C38.0629 63.9887 39.0844 66.5207 39.4413 66.3926ZM54.0513 73.8894C53.5262 73.4234 53.5423 73.8625 53.2123 74.0024C52.4588 74.3189 51.4938 74.7112 50.8103 75.1262C50.534 75.2948 49.996 75.3747 50.451 75.8619C50.553 75.9724 52.9049 74.7989 53.2078 74.6522C53.6107 74.4569 53.9036 74.4297 54.0502 73.8914L54.0513 73.8894ZM40.6162 76.0046C41.1599 75.8182 39.5028 71.6964 38.8368 71.466L40.6162 76.0046Z" fill="#5C2235"/>
<path d="M31.0655 32.5779C30.3572 32.3453 30.7427 32.2351 30.8105 31.7872C31.189 29.3064 31.9511 25.7998 34.1182 24.3265C32.7236 26.9557 31.9762 29.7645 31.0655 32.5779Z" fill="white"/>
<path d="M73.5759 37.2876L66.1335 41.3941C65.8154 40.7124 66.028 40.8308 66.4433 40.5021C67.5957 39.5958 71.1037 37.8009 72.5226 37.3475C72.8974 37.2289 73.1749 36.9336 73.5769 37.2856L73.5759 37.2876Z" fill="white"/>
<path d="M65.2796 56.2175C64.6811 57.646 63.886 58.8447 62.2497 59.093C62.6824 58.4397 62.2617 57.5529 62.8696 57.0212L65.2796 56.2175Z" fill="white"/>
<path d="M73.4154 66.8495C73.0775 67.5788 68.3091 69.932 68.0329 69.0663L71.3334 67.3925L73.4154 66.8495Z" fill="white"/>
<path d="M36.8017 58.3967C36.191 56.3437 35.8468 53.8775 36.1464 51.7598C36.7564 53.8811 36.9627 56.1847 36.8017 58.3967Z" fill="white"/>
<path d="M50.5185 68.7101L50.5722 66.4408L52.0146 65.6178C51.6255 66.7733 52.3365 68.6479 50.5185 68.7101Z" fill="white"/>
<path d="M95.4033 49.8223L93.6969 54.1704L92.0457 56.1175L95.4033 49.8223Z" fill="white"/>
<path d="M38.7415 51.9452C38.3545 50.3682 37.938 48.4442 38.165 46.8457C38.84 48.3088 39.2763 50.4064 38.7415 51.9452Z" fill="white"/>
<path d="M82.5552 61.5374L86.4085 58.8031C85.9224 60.5666 84.039 60.9047 82.5552 61.5374Z" fill="white"/>
<path d="M79.4854 42.5283C81.1559 41.8041 82.8613 41.096 84.7281 41.1337L83.83 41.7069L79.4864 42.5263L79.4854 42.5283Z" fill="white"/>
<path d="M48.5136 44.8782L47.6938 49.2304L47.6929 45.4213C47.8607 44.8866 47.9266 44.3944 48.5136 44.8782Z" fill="white"/>
<path d="M40.6168 76.0063L38.8374 71.4676C39.5015 71.6969 41.1585 75.8188 40.6168 76.0063Z" fill="white"/>
<path d="M54.0519 73.8898C53.9063 74.4262 53.6124 74.4554 53.2095 74.6507C52.9066 74.7973 50.5547 75.9708 50.4527 75.8604C49.9957 75.3721 50.5326 75.2941 50.812 75.1247C51.4955 74.7096 52.4605 74.3174 53.214 74.0008C53.5429 73.8629 53.5299 73.4229 54.053 73.8879L54.0519 73.8898Z" fill="white"/>
<path d="M63.6666 45.1786L62.2296 45.9051L62.2802 43.8379L63.6666 45.1786Z" fill="white"/>
<path d="M39.4419 66.3935C39.085 66.5216 38.0635 63.9896 39.0358 63.7847C39.6222 63.6618 39.8963 66.2308 39.4419 66.3935Z" fill="white"/>
<path d="M67.2246 72.8295C66.8619 73.0691 63.4774 74.5988 63.2887 74.0192C63.6068 73.6717 67.0555 72.3088 67.2246 72.8295Z" fill="white"/>
<path d="M78.103 45.6875L81.4526 44.1851L81.3177 45.0124L78.103 45.6875Z" fill="white"/>
</svg>
