<svg width="24" height="11" viewBox="0 0 24 11" fill="none" xmlns="http://www.w3.org/2000/svg">
<path d="M18.6 0C21.58 0 24 2.38 24 5.38C24 8.34 21.58 10.75 18.6 10.75C17.15 10.75 15.8 10.19 14.78 9.18L12 6.72L9.17 9.23C8.2 10.2 6.84 10.76 5.4 10.76C2.42 10.76 0 8.34 0 5.38C0 2.42 2.42 0 5.4 0C6.84 0 8.2 0.56 9.22 1.58L12 4.04L14.83 1.53C15.8 0.56 17.16 0 18.6 0ZM7.8 7.77L10.5 5.38L7.84 3.03C7.16 2.35 6.31 2 5.4 2C3.53 2 2 3.51 2 5.38C2 7.25 3.53 8.76 5.4 8.76C6.31 8.76 7.16 8.41 7.8 7.77ZM16.2 2.99L13.5 5.38L16.16 7.73C16.84 8.41 17.7 8.76 18.6 8.76C20.47 8.76 22 7.25 22 5.38C22 3.51 20.47 2 18.6 2C17.69 2 16.84 2.35 16.2 2.99Z" fill="#FEFEFE"/>
</svg>
