<svg width="16" height="18" viewBox="0 0 16 18" fill="none" xmlns="http://www.w3.org/2000/svg">
<path d="M3 8C3.79565 8 4.55871 8.31607 5.12132 8.87868C5.68393 9.44129 6 10.2044 6 11C6 11.7956 5.68393 12.5587 5.12132 13.1213C4.55871 13.6839 3.79565 14 3 14C2.20435 14 1.44129 13.6839 0.87868 13.1213C0.316071 12.5587 0 11.7956 0 11C0 10.2044 0.316071 9.44129 0.87868 8.87868C1.44129 8.31607 2.20435 8 3 8ZM7 0C7.79565 0 8.55871 0.316071 9.12132 0.87868C9.68393 1.44129 10 2.20435 10 3C10 3.79565 9.68393 4.55871 9.12132 5.12132C8.55871 5.68393 7.79565 6 7 6C6.20435 6 5.44129 5.68393 4.87868 5.12132C4.31607 4.55871 4 3.79565 4 3C4 2.20435 4.31607 1.44129 4.87868 0.87868C5.44129 0.316071 6.20435 0 7 0ZM12.6 11.6C14.25 11.6 15.6 12.94 15.6 14.6C15.6 15.3956 15.2839 16.1587 14.7213 16.7213C14.1587 17.2839 13.3956 17.6 12.6 17.6C10.94 17.6 9.6 16.25 9.6 14.6C9.6 13.8044 9.91607 13.0413 10.4787 12.4787C11.0413 11.9161 11.8044 11.6 12.6 11.6Z" fill="#FEFEFE"/>
</svg>
