<svg width="373" height="480" viewBox="0 0 373 480" fill="none" xmlns="http://www.w3.org/2000/svg">
<path d="M356.622 252.179C365.653 126.357 296.802 18.9053 202.84 12.179C108.877 5.45276 25.3837 101.999 16.3525 227.821C7.32124 353.643 76.1719 461.095 170.135 467.821C264.097 474.547 347.591 378.001 356.622 252.179Z" fill="white"/>
<path d="M242.854 304.858C237.227 326.1 229.489 343.265 219.639 356.379C209.788 369.492 199.704 376.053 189.386 376.053C174.686 376.053 161.087 364.04 148.582 339.989C134.516 312.203 127.479 278.165 127.479 237.882C127.479 197.6 134.516 163.412 148.582 135.309C161.087 111.266 174.686 99.2449 189.386 99.2449C197.826 99.2449 206.341 103.93 214.947 113.292C223.545 122.662 230.808 135.309 236.752 151.232L270.051 138.585C261.611 116.735 250.976 99.4033 238.162 86.5984C225.616 73.81 211.934 66.4904 197.116 64.623C195.455 68.5329 192.542 71.9093 188.76 73.8684C181.456 77.6532 171.655 75.7775 166.271 69.5584C166.012 78.3285 160.619 86.765 152.747 90.6749C147.321 93.3759 140.902 93.7928 135.083 92.1588C128.505 99.7951 122.52 108.849 117.152 119.386C100.265 152.174 91.825 191.598 91.825 237.649C91.825 283.7 100.265 323.132 117.152 355.912C126.218 374.027 137.003 387.841 149.517 397.361C162.022 406.89 175.312 411.65 189.386 411.65C210.022 411.65 228.462 401.663 244.732 381.672C258.798 364.507 269.592 342.023 277.097 314.229L242.862 304.858H242.854Z" fill="#5C2235"/>
<path d="M86.0652 122.003C84.2704 120.144 82.534 117.785 82.9848 115.401C83.494 112.725 86.4825 111.349 89.2206 110.641C94.0707 109.382 99.2381 108.998 104.339 109.665C105.04 109.757 105.816 109.915 106.25 110.465C106.701 111.032 106.609 111.808 106.459 112.475C105.265 117.944 101.909 122.503 98.395 126.738C96.333 129.223 95.8154 129.857 92.7851 127.747C90.3559 126.055 88.1021 124.121 86.0652 122.012V122.003Z" fill="#5C2235"/>
<path d="M103.413 89.0157C103.396 89.7243 103.855 90.4579 104.473 90.9331C105.09 91.4083 105.85 91.6584 106.601 91.7835C107.453 91.9252 108.338 91.9169 109.072 91.6001C109.807 91.275 110.375 90.6081 110.408 89.7995C110.433 89.1742 110.158 88.5406 110.183 87.9237C110.208 87.3402 110.558 86.8149 110.517 86.223C110.433 85.0976 109.974 84.7808 108.939 84.9642C107.361 85.2393 103.446 87.3734 103.413 89.024V89.0157Z" fill="#5C2235"/>
<path d="M110.315 105.239C110.014 105.664 109.438 105.881 108.887 105.881C108.336 105.881 107.81 105.672 107.335 105.406C106.8 105.097 106.316 104.689 106.049 104.155C105.782 103.622 105.757 102.971 106.099 102.479C106.358 102.104 106.784 101.854 107.042 101.479C107.285 101.129 107.318 100.654 107.602 100.329C108.136 99.7034 108.528 99.7283 109.021 100.312C109.781 101.204 111.008 104.263 110.315 105.247V105.239Z" fill="#5C2235"/>
<path d="M100.189 93.8681C100.406 94.4184 100.632 95.0019 100.506 95.5605C100.389 96.094 99.9721 96.5025 99.5214 96.8193C96.7081 98.8368 92.6428 98.2865 89.1033 97.3695C87.9012 97.061 86.5322 96.5775 86.073 95.4604C85.6306 94.3933 86.2483 93.2679 86.8744 92.3508C87.993 90.7335 89.2201 89.1831 90.5475 87.7158C91.3822 86.7905 93.5777 83.6808 94.9468 83.5807C97.1756 83.414 99.4796 92.1258 100.181 93.8681H100.189Z" fill="#5C2235"/>
</svg>
