<svg width="14" height="14" viewBox="0 0 14 14" fill="none" xmlns="http://www.w3.org/2000/svg">
<path d="M6.66667 12C3.72667 12 1.33333 9.60667 1.33333 6.66667C1.33333 3.72667 3.72667 1.33333 6.66667 1.33333C9.60667 1.33333 12 3.72667 12 6.66667C12 9.60667 9.60667 12 6.66667 12ZM6.66667 0C2.98 0 0 2.98 0 6.66667C0 10.3533 2.98 13.3333 6.66667 13.3333C10.3533 13.3333 13.3333 10.3533 13.3333 6.66667C13.3333 2.98 10.3533 0 6.66667 0ZM8.39333 4L6.66667 5.72667L4.94 4L4 4.94L5.72667 6.66667L4 8.39333L4.94 9.33333L6.66667 7.60667L8.39333 9.33333L9.33333 8.39333L7.60667 6.66667L9.33333 4.94L8.39333 4Z" fill="#FF2D55"/>
</svg>
