<svg width="16" height="20" viewBox="0 0 16 20" fill="none" xmlns="http://www.w3.org/2000/svg">
<path fill-rule="evenodd" clip-rule="evenodd" d="M0 5.462C0 3.518 1.62 2 3.545 2H4.5V4H3.545C2.66 4 2 4.686 2 5.462V16.538C2 17.314 2.66 18 3.545 18H12.455C13.34 18 14 17.314 14 16.538V5.462C14 4.686 13.34 4 12.454 4H11.182V2H12.454C14.381 2 16 3.518 16 5.462V16.538C16 18.482 14.38 20 12.454 20H3.545C1.62 20 0 18.482 0 16.538V5.462Z" fill="black"/>
<path fill-rule="evenodd" clip-rule="evenodd" d="M5.523 0H10.477C11.1461 0 11.7879 0.265815 12.261 0.73897C12.7342 1.21212 13 1.85386 13 2.523V3.477C13 4.14614 12.7342 4.78788 12.261 5.26103C11.7879 5.73418 11.1461 6 10.477 6H5.523C4.85386 6 4.21212 5.73418 3.73897 5.26103C3.26582 4.78788 3 4.14614 3 3.477V2.523C3 1.85386 3.26582 1.21212 3.73897 0.73897C4.21212 0.265815 4.85386 0 5.523 0ZM5.523 2C5.38429 2 5.25126 2.0551 5.15318 2.15318C5.0551 2.25126 5 2.38429 5 2.523V3.477C5 3.766 5.234 4 5.523 4H10.477C10.6157 4 10.7487 3.9449 10.8468 3.84682C10.9449 3.74874 11 3.61571 11 3.477V2.523C11 2.45432 10.9865 2.38631 10.9602 2.32286C10.9339 2.2594 10.8954 2.20175 10.8468 2.15318C10.7983 2.10462 10.7406 2.06609 10.6771 2.03981C10.6137 2.01353 10.5457 2 10.477 2H5.523ZM4 10C4 9.73478 4.10536 9.48043 4.29289 9.29289C4.48043 9.10536 4.73478 9 5 9H10C10.2652 9 10.5196 9.10536 10.7071 9.29289C10.8946 9.48043 11 9.73478 11 10C11 10.2652 10.8946 10.5196 10.7071 10.7071C10.5196 10.8946 10.2652 11 10 11H5C4.73478 11 4.48043 10.8946 4.29289 10.7071C4.10536 10.5196 4 10.2652 4 10ZM4 14C4 13.7348 4.10536 13.4804 4.29289 13.2929C4.48043 13.1054 4.73478 13 5 13H8.125C8.39022 13 8.64457 13.1054 8.83211 13.2929C9.01964 13.4804 9.125 13.7348 9.125 14C9.125 14.2652 9.01964 14.5196 8.83211 14.7071C8.64457 14.8946 8.39022 15 8.125 15H5C4.73478 15 4.48043 14.8946 4.29289 14.7071C4.10536 14.5196 4 14.2652 4 14Z" fill="black"/>
</svg>
