<svg width="18" height="20" viewBox="0 0 18 20" fill="none" xmlns="http://www.w3.org/2000/svg">
<path fill-rule="evenodd" clip-rule="evenodd" d="M10.999 0.555233L15.785 3.31723C16.4149 3.68069 16.938 4.20368 17.3016 4.83355C17.6651 5.46343 17.8564 6.17796 17.856 6.90523V12.4312C17.856 13.9112 17.066 15.2792 15.785 16.0192L10.999 18.7812C10.3694 19.145 9.65511 19.3365 8.928 19.3365C8.20089 19.3365 7.4866 19.145 6.857 18.7812L2.071 16.0192C1.44106 15.6558 0.917989 15.1328 0.554424 14.5029C0.19086 13.873 -0.000364407 13.1585 5.21339e-07 12.4312V6.90523C5.21339e-07 5.42523 0.790001 4.05723 2.071 3.31723L6.858 0.555233C7.4876 0.1915 8.20189 0 8.929 0C9.65611 0 10.3694 0.1915 10.999 0.555233ZM9.999 2.28723C9.67344 2.09904 9.30404 1.99995 8.928 1.99995C8.55196 1.99995 8.18256 2.09904 7.857 2.28723L3.071 5.04823C2.7451 5.23616 2.47449 5.50668 2.28646 5.83253C2.09843 6.15837 1.99963 6.52803 2 6.90423V12.4302C2 13.1952 2.408 13.9032 3.071 14.2862L7.857 17.0482C8.18256 17.2364 8.55196 17.3355 8.928 17.3355C9.30404 17.3355 9.67344 17.2364 9.999 17.0482L14.785 14.2862C15.1109 14.0983 15.3815 13.8278 15.5695 13.5019C15.7576 13.1761 15.8564 12.8064 15.856 12.4302V6.90523C15.856 6.14023 15.448 5.43223 14.785 5.04923L9.998 2.28823L9.999 2.28723Z" fill="black"/>
<path fill-rule="evenodd" clip-rule="evenodd" d="M7.52305 9.51219L1.62305 6.56219L2.51805 4.77419L8.41705 7.72319C8.73905 7.88319 9.11705 7.88319 9.43905 7.72319L15.338 4.77319L16.233 6.56319L10.333 9.51219C9.89684 9.73044 9.4158 9.84407 8.92805 9.84407C8.44029 9.84407 7.95925 9.73044 7.52305 9.51219Z" fill="black"/>
<path fill-rule="evenodd" clip-rule="evenodd" d="M9.92796 9.09621V18.2392H7.92796V9.09621H9.92796ZM4.60496 2.93521C4.66371 2.81772 4.74503 2.71296 4.84427 2.62691C4.94351 2.54086 5.05874 2.4752 5.18336 2.43369C5.30798 2.39218 5.43956 2.37563 5.57058 2.38498C5.7016 2.39434 5.8295 2.42941 5.94696 2.48821L12.804 5.91621C13.0413 6.03489 13.2218 6.24301 13.3058 6.49478C13.3897 6.74654 13.3701 7.02134 13.2515 7.25871C13.1328 7.49607 12.9247 7.67657 12.6729 7.7605C12.4211 7.84442 12.1463 7.82489 11.909 7.70621L5.05196 4.27621C4.81521 4.15756 4.63519 3.94984 4.55139 3.69863C4.46759 3.44742 4.48686 3.17223 4.60496 2.93521Z" fill="black"/>
</svg>
