<svg width="214" height="213" viewBox="0 0 214 213" fill="none" xmlns="http://www.w3.org/2000/svg">
<path d="M79.4351 185.693C123.306 200.703 171.011 177.386 185.987 133.613C200.964 89.8407 177.54 42.1879 133.669 27.1779C89.7987 12.168 42.0936 35.4848 27.1172 79.2575C12.1408 123.03 35.5643 170.683 79.4351 185.693Z" fill="#F4D4FC"/>
<path d="M133.57 87.1446C143.101 90.5702 149.82 99.5031 147.633 109.032C143.974 124.983 125.026 132.194 110.693 137.051C107.543 138.119 100.151 141 97.0144 140.188C93.3459 139.238 90.7759 134.849 88.6888 131.94C80.5021 120.526 68.9719 103.707 70.2969 89.9151C72.3174 68.8773 98.9994 67.3936 109.758 85.3901C110.08 85.928 111.407 88.8244 111.605 88.8528C114.831 86.9689 118.486 85.8157 122.366 85.5979C126.089 85.3902 129.944 85.8407 133.567 87.1414L133.57 87.1446ZM109.708 95.1331C108.901 93.1308 108.384 91.0564 107.453 89.0824C98.7836 70.6992 74.0827 73.1972 74.5684 93.745C74.8377 105.111 84.6829 119.03 91.3505 128.632C92.5005 130.287 95.7321 135.293 97.4293 135.912C97.9127 136.088 98.7376 136.101 99.2434 136.024C102.728 135.49 109.382 132.774 112.877 131.47C125.032 126.934 142.837 119.619 143.584 104.93C144.039 95.9625 135.051 89.8083 126.449 89.2072C120.284 88.7766 113.821 91.0487 109.707 95.1307L109.708 95.1331Z" fill="white"/>
<path d="M109.718 95.1265C113.831 91.044 120.29 88.7736 126.456 89.2048C135.056 89.8056 144.042 95.9581 143.587 104.923C142.84 119.606 125.037 126.92 112.887 131.455C109.393 132.759 102.74 135.474 99.2563 136.008C98.7525 136.085 97.9278 136.072 97.4426 135.896C95.7477 135.278 92.515 130.272 91.3652 128.618C84.6986 119.021 74.8558 105.106 74.5871 93.7411C74.1014 73.1995 98.7966 70.7022 107.464 89.08C108.395 91.0534 108.911 93.1272 109.719 95.1289L109.718 95.1265ZM122.242 97.8168L125.832 96.6903L126.506 96.1194C124.896 96.2771 123.553 97.0411 122.241 97.8186L122.242 97.8168ZM116.273 94.0286C115.866 93.774 115.68 94.05 115.378 94.1873C114.237 94.7107 111.53 96.5692 110.695 97.4448C110.395 97.7604 110.193 97.6828 110.582 98.223L116.272 94.0304L116.273 94.0286ZM137.157 102.31L135.347 107.921L136.434 106.121L137.157 102.31ZM121.594 100.603L124.24 99.7119L124.215 99.0056L121.594 100.603ZM78.9613 94.3964C79.2635 91.9487 79.4262 89.5214 80.1753 87.1789C78.5661 88.6303 78.5073 91.6443 78.6075 93.7603C78.6257 94.1421 78.3133 94.2735 78.9613 94.3964ZM109.108 101.64L107.689 100.658L107.999 102.392L109.108 101.64ZM128.121 113.42C129.288 112.74 130.848 112.264 130.964 110.74L128.121 113.42ZM96.0441 102.926C95.4568 102.582 95.4848 102.999 95.4319 103.464L96.0825 106.653L96.0441 102.926ZM112.377 110.719L110.445 111.636C110.015 112.144 110.526 112.843 110.266 113.434C111.628 113.062 112.106 111.977 112.377 110.719ZM88.8574 109.834C89.056 108.492 88.3216 106.779 87.4923 105.623C87.5687 106.982 88.256 108.553 88.8574 109.834ZM121.178 118.793L119.483 119.459L116.934 121.195C117.319 121.891 121.011 119.435 121.178 118.793ZM88.2926 115.431C88.0541 113.561 87.4833 111.655 86.5976 109.941C86.7015 111.744 87.4198 113.775 88.2926 115.431ZM116.882 124.429C116.648 124.01 113.92 125.499 113.705 125.824C113.966 126.29 116.612 124.666 116.882 124.429ZM101.832 122.673C103.384 122.437 102.452 120.939 102.589 119.932L101.491 120.767L101.832 122.673ZM91.9236 121.857C92.2861 121.675 91.6124 119.552 91.1297 119.714C90.3296 119.984 91.6389 122.001 91.9236 121.857ZM105.75 126.652C105.219 126.315 105.308 126.681 105.048 126.832C104.455 127.173 103.694 127.599 103.177 128.016C102.969 128.185 102.52 128.307 102.994 128.668C103.101 128.75 104.92 127.53 105.156 127.376C105.468 127.172 105.715 127.119 105.749 126.654L105.75 126.652ZM94.5725 129.785C95.0076 129.574 92.8813 126.291 92.2699 126.166L94.5725 129.785Z" fill="#5C2235"/>
<path d="M79.9602 95.0412C79.2793 94.9147 79.6075 94.7794 79.5884 94.3862C79.4851 92.2081 79.5443 89.1057 81.236 87.6095C80.4487 90.0216 80.2777 92.5209 79.9602 95.0412Z" fill="white"/>
<path d="M116.718 93.3416L110.954 97.5869C110.559 97.0416 110.765 97.1202 111.069 96.7989C111.915 95.9123 114.656 94.0305 115.812 93.5005C116.118 93.3615 116.308 93.0827 116.718 93.3399L116.718 93.3416Z" fill="white"/>
<path d="M112.255 110.527C111.978 111.808 111.488 112.914 110.092 113.295C110.358 112.693 109.833 111.979 110.275 111.462L112.255 110.527Z" fill="white"/>
<path d="M120.654 118.51C120.486 119.161 116.76 121.637 116.371 120.934L118.943 119.182L120.654 118.51Z" fill="white"/>
<path d="M88.416 116.25C87.5288 114.571 86.8022 112.513 86.6968 110.685C87.5951 112.423 88.1734 114.356 88.416 116.25Z" fill="white"/>
<path d="M101.441 123.124L101.093 121.184L102.216 120.333C102.076 121.358 103.027 122.884 101.441 123.124Z" fill="white"/>
<path d="M136.996 100.871L136.219 104.818L135.048 106.678L136.996 100.871Z" fill="white"/>
<path d="M89.151 110.487C88.5415 109.189 87.8464 107.6 87.7676 106.221C88.608 107.393 89.3504 109.127 89.151 110.487Z" fill="white"/>
<path d="M127.709 112.555L130.613 109.826C130.494 111.38 128.9 111.862 127.709 112.555Z" fill="white"/>
<path d="M122.474 96.7447C123.788 95.9668 125.135 95.1989 126.749 95.0407L126.074 95.6133L122.475 96.743L122.474 96.7447Z" fill="white"/>
<path d="M96.3523 103.136L96.3917 106.94L95.7242 103.685C95.7784 103.211 95.7502 102.783 96.3523 103.136Z" fill="white"/>
<path d="M94.0495 130.726L91.7458 127.105C92.3555 127.23 94.4829 130.514 94.0495 130.726Z" fill="white"/>
<path d="M105.125 127.147C105.091 127.616 104.841 127.671 104.525 127.877C104.287 128.032 102.447 129.267 102.34 129.184C101.859 128.817 102.311 128.696 102.525 128.524C103.046 128.103 103.817 127.672 104.416 127.327C104.678 127.176 104.591 126.805 105.125 127.145L105.125 127.147Z" fill="white"/>
<path d="M109.378 101.321L108.262 102.076L107.949 100.334L109.378 101.321Z" fill="white"/>
<path d="M91.6962 122.698C91.4088 122.842 90.0844 120.808 90.8924 120.536C91.3798 120.373 92.0623 122.514 91.6962 122.698Z" fill="white"/>
<path d="M116.204 124.433C115.932 124.671 113.275 126.304 113.013 125.835C113.227 125.51 115.969 124.012 116.204 124.433Z" fill="white"/>
<path d="M121.732 99.6622L124.372 98.052L124.397 98.764L121.732 99.6622Z" fill="white"/>
</svg>
