<svg width="214" height="213" viewBox="0 0 214 213" fill="none" xmlns="http://www.w3.org/2000/svg">
<path d="M79.4351 185.693C123.306 200.703 171.011 177.386 185.987 133.613C200.964 89.8407 177.54 42.1879 133.669 27.1779C89.7987 12.168 42.0936 35.4848 27.1172 79.2575C12.1408 123.03 35.5643 170.683 79.4351 185.693Z" fill="#F4D4FC"/>
<path d="M133.564 87.1702C143.098 90.6002 149.822 99.5337 147.638 109.058C143.986 125 125.038 132.198 110.705 137.044C107.555 138.11 100.164 140.985 97.0261 140.172C93.3566 139.22 90.7843 134.831 88.6957 131.922C80.5029 120.507 68.9637 103.688 70.283 89.9022C72.2947 68.8737 98.9799 67.4063 109.747 85.4023C110.07 85.9402 111.399 88.8363 111.597 88.8648C114.822 86.9835 118.477 85.8329 122.358 85.6175C126.082 85.4121 129.937 85.8647 133.561 87.1671L133.564 87.1702ZM109.703 95.1416C108.894 93.1395 108.376 91.0656 107.444 89.0918C98.7655 70.7105 74.0621 73.1929 74.5568 93.7331C74.8311 105.095 84.6836 119.015 91.3564 128.617C92.5073 130.271 95.7415 135.278 97.4392 135.897C97.9228 136.073 98.7478 136.087 99.2537 136.01C102.738 135.479 109.393 132.768 112.887 131.466C125.042 126.939 142.846 119.637 143.588 104.955C144.039 95.991 135.047 89.8338 126.443 89.2279C120.277 88.7937 113.814 91.0612 109.701 95.1391L109.703 95.1416Z" fill="white"/>
<path d="M109.712 95.1347C113.824 91.0562 120.283 88.7905 126.45 89.2253C135.051 89.831 144.041 95.9863 143.59 104.947C142.85 119.624 125.048 126.925 112.897 131.451C109.404 132.752 102.751 135.463 99.2668 135.994C98.763 136.071 97.9382 136.057 97.4528 135.881C95.7574 135.262 92.5221 130.256 91.3714 128.602C84.6997 119.005 74.8494 105.089 74.5758 93.7291C74.0812 73.1951 98.7789 70.7135 107.455 89.0892C108.387 91.0624 108.905 93.1357 109.713 95.1372L109.712 95.1347ZM122.239 97.8314L125.83 96.7075L126.503 96.1372C124.893 96.2939 123.55 97.0568 122.239 97.8332L122.239 97.8314ZM116.268 94.0411C115.86 93.7864 115.674 94.0622 115.373 94.1992C114.232 94.7218 111.526 96.5779 110.691 97.4527C110.391 97.768 110.188 97.6903 110.577 98.2306L116.267 94.0429L116.268 94.0411ZM137.158 102.332L135.351 107.939L136.437 106.141L137.158 102.332ZM121.593 100.616L124.238 99.727L124.213 99.0209L121.593 100.616ZM78.9509 94.3867C79.2521 91.9401 79.4137 89.5139 80.162 87.1727C78.5532 88.6226 78.4957 91.6354 78.5968 93.7506C78.6151 94.1323 78.3028 94.2635 78.9509 94.3867ZM109.106 101.645L107.686 100.663L107.996 102.396L109.106 101.645ZM128.126 113.432C129.292 112.753 130.853 112.278 130.968 110.755L128.126 113.432ZM96.0399 102.923C95.4523 102.579 95.4805 102.996 95.4278 103.46L96.0799 106.648L96.0399 102.923ZM112.379 110.723L110.446 111.638C110.017 112.146 110.528 112.845 110.268 113.435C111.631 113.064 112.108 111.98 112.379 110.723ZM88.8551 109.824C89.0532 108.483 88.3179 106.77 87.488 105.614C87.565 106.972 88.2531 108.543 88.8551 109.824ZM121.185 118.799L119.489 119.463L116.941 121.197C117.326 121.894 121.018 119.441 121.185 118.799ZM88.2926 115.418C88.0533 113.549 87.4816 111.644 86.595 109.93C86.6997 111.732 87.419 113.762 88.2926 115.418ZM116.89 124.43C116.656 124.011 113.928 125.498 113.713 125.822C113.975 126.289 116.62 124.667 116.89 124.43ZM101.837 122.666C103.389 122.431 102.456 120.933 102.593 119.927L101.495 120.761L101.837 122.666ZM91.9269 121.845C92.2894 121.663 91.6146 119.54 91.132 119.702C90.3319 119.972 91.6423 121.988 91.9269 121.845ZM105.757 126.645C105.226 126.308 105.315 126.674 105.056 126.825C104.463 127.166 103.701 127.591 103.185 128.008C102.976 128.176 102.528 128.298 103.002 128.66C103.109 128.742 104.928 127.522 105.163 127.369C105.476 127.165 105.723 127.113 105.757 126.647L105.757 126.645ZM94.5796 129.771C95.0147 129.56 92.8866 126.277 92.2752 126.152L94.5796 129.771Z" fill="#5C2235"/>
<path d="M79.9615 95.0413C79.28 94.9143 79.6084 94.7792 79.5891 94.386C79.4848 92.2077 79.5427 89.1051 81.2349 87.6098C80.4481 90.0216 80.2781 92.5209 79.9615 95.0413Z" fill="white"/>
<path d="M116.718 93.344L110.954 97.585C110.559 97.0396 110.765 97.1183 111.069 96.7972C111.915 95.9113 114.656 94.0315 115.812 93.5023C116.117 93.3635 116.308 93.0849 116.718 93.3422L116.718 93.344Z" fill="white"/>
<path d="M112.254 110.528C111.978 111.809 111.488 112.914 110.091 113.295C110.358 112.692 109.832 111.978 110.274 111.462L112.254 110.528Z" fill="white"/>
<path d="M120.654 118.512C120.487 119.162 116.76 121.636 116.371 120.933L118.943 119.182L120.654 118.512Z" fill="white"/>
<path d="M88.4174 116.25C87.5293 114.571 86.8016 112.513 86.6953 110.686C87.5947 112.423 88.174 114.357 88.4174 116.25Z" fill="white"/>
<path d="M101.441 123.124L101.092 121.183L102.214 120.333C102.075 121.359 103.027 122.884 101.441 123.124Z" fill="white"/>
<path d="M136.995 100.871L136.219 104.818L135.048 106.678L136.995 100.871Z" fill="white"/>
<path d="M89.1518 110.487C88.5416 109.189 87.8455 107.6 87.7661 106.221C88.6073 107.393 89.3506 109.127 89.1518 110.487Z" fill="white"/>
<path d="M127.708 112.554L130.612 109.827C130.494 111.381 128.9 111.862 127.708 112.554Z" fill="white"/>
<path d="M122.474 96.7433C123.788 95.9665 125.135 95.1995 126.749 95.0424L126.074 95.6144L122.475 96.7415L122.474 96.7433Z" fill="white"/>
<path d="M96.3511 103.136L96.3922 106.94L95.723 103.685C95.777 103.211 95.7487 102.783 96.3511 103.136Z" fill="white"/>
<path d="M94.0504 130.727L91.7448 127.105C92.3547 127.23 94.4838 130.515 94.0504 130.727Z" fill="white"/>
<path d="M105.124 127.148C105.09 127.617 104.84 127.671 104.524 127.878C104.286 128.033 102.447 129.266 102.339 129.183C101.858 128.816 102.311 128.695 102.524 128.523C103.046 128.102 103.816 127.672 104.416 127.327C104.677 127.177 104.59 126.806 105.125 127.146L105.124 127.148Z" fill="white"/>
<path d="M109.377 101.322L108.261 102.076L107.948 100.334L109.377 101.322Z" fill="white"/>
<path d="M91.6953 122.698C91.408 122.842 90.0837 120.808 90.8914 120.536C91.3786 120.373 92.0612 122.515 91.6953 122.698Z" fill="white"/>
<path d="M116.204 124.434C115.932 124.672 113.274 126.302 113.012 125.834C113.227 125.509 115.968 124.013 116.204 124.434Z" fill="white"/>
<path d="M121.732 99.6611L124.372 98.0529L124.397 98.7647L121.732 99.6611Z" fill="white"/>
</svg>
