<svg width="226" height="360" viewBox="0 0 226 360" fill="none" xmlns="http://www.w3.org/2000/svg">
<path d="M167.666 251.792C159.988 272.043 150.654 288.083 139.662 299.936C128.671 311.789 118.117 317.194 108.002 316.144C93.5906 314.647 81.4823 301.486 71.6715 276.635C60.7105 247.964 57.2767 213.879 61.3773 174.389C65.4779 134.898 75.857 102.099 92.5072 75.9807C107.214 53.6838 121.769 43.2831 136.18 44.7796C144.454 45.6387 152.324 51.0986 159.809 61.1526C167.284 71.2139 173.116 84.3511 177.322 100.566L211.254 91.5576C205.205 69.278 196.543 51.2046 185.285 37.347C174.286 23.533 161.618 14.9645 147.283 11.6255C145.256 15.2894 142.056 18.3028 138.15 19.8384C130.604 22.8052 121.187 19.9688 116.542 13.3239C115.395 21.8952 109.25 29.6168 101.134 32.6484C95.5401 34.744 89.2044 34.4992 83.6667 32.305C76.4407 39.1215 69.6514 47.3878 63.3166 57.1716C43.4234 87.5955 31.1364 125.385 26.4486 170.53C21.7607 215.676 26.0204 255.192 39.2391 289.046C46.2825 307.728 55.4496 322.367 66.7478 332.974C78.0369 343.589 90.5807 349.608 104.378 351.041C124.608 353.141 143.703 345.228 161.688 327.286C177.224 311.891 190.095 290.948 200.281 264.464L167.674 251.793L167.666 251.792Z" fill="white"/>
<path d="M32.5756 56.5734C31.0054 54.5682 29.5433 52.0786 30.2279 49.7872C30.9995 47.2156 34.0693 46.1713 36.8257 45.7554C41.7085 45.0151 46.8133 45.165 51.7457 46.338C52.4237 46.4993 53.1686 46.7336 53.5382 47.3172C53.9224 47.9188 53.7534 48.6696 53.5382 49.3081C51.8113 54.5479 48.0573 58.6766 44.1809 62.4705C41.9066 64.6961 41.3347 65.2645 38.5787 62.8883C36.3695 60.982 34.3569 58.8566 32.5748 56.5816L32.5756 56.5734Z" fill="white"/>
<path d="M52.939 26C52.8505 26.693 53.2259 27.459 53.7832 27.9877C54.3404 28.5164 55.0597 28.8389 55.7835 29.038C56.6038 29.2636 57.4721 29.3456 58.2245 29.1098C58.9777 28.8658 59.6021 28.2699 59.7171 27.4805C59.8053 26.8701 59.5998 26.221 59.6872 25.6187C59.7712 25.0492 60.1683 24.57 60.1876 23.9855C60.2203 22.8737 59.8025 22.5164 58.769 22.5908C57.1943 22.6999 53.1389 24.3934 52.9382 26.0082L52.939 26Z" fill="white"/>
<path d="M58.0567 42.6068C57.7188 42.993 57.1321 43.1469 56.592 43.0908C56.0519 43.0347 55.5575 42.777 55.1182 42.467C54.6258 42.1103 54.1927 41.6605 53.9852 41.1103C53.7776 40.56 53.8193 39.92 54.2049 39.4727C54.4968 39.1313 54.9396 38.9293 55.2315 38.5878C55.5045 38.2692 55.5855 37.8069 55.8969 37.517C56.4843 36.9585 56.8664 37.0229 57.2898 37.6451C57.9438 38.5969 58.8352 41.7211 58.0559 42.615L58.0567 42.6068Z" fill="white"/>
<path d="M49.2866 30.4283C49.4434 30.9898 49.605 31.5849 49.4254 32.1197C49.2565 32.6308 48.8058 32.9888 48.3316 33.2535C45.3683 34.9449 41.4389 33.9916 38.0624 32.7323C36.9153 32.3075 35.6224 31.6941 35.2861 30.5523C34.961 29.4611 35.6811 28.4207 36.3882 27.5855C37.6494 26.1138 39.0103 24.7188 40.4609 23.4155C41.3734 22.5933 43.8423 19.7683 45.1946 19.8096C47.3966 19.873 48.7684 28.648 49.2785 30.4275L49.2866 30.4283Z" fill="white"/>
</svg>
